<mxfile host="Electron" agent="Mozilla/5.0 (Windows NT 10.0; Win64; x64) AppleWebKit/537.36 (KHTML, like Gecko) draw.io/24.7.5 Chrome/126.0.6478.183 Electron/31.3.0 Safari/537.36" version="24.7.5" pages="7">
  <diagram id="6HIuudpmVDuni2jQTYXD" name="Activity">
    <mxGraphModel dx="3666" dy="1395" grid="1" gridSize="10" guides="1" tooltips="1" connect="1" arrows="1" fold="1" page="0" pageScale="1" pageWidth="850" pageHeight="1100" math="0" shadow="0">
      <root>
        <mxCell id="0" />
        <mxCell id="1" parent="0" />
        <mxCell id="GKDRDfqeq3WyiDcM14L1-1" value="Student" style="swimlane;whiteSpace=wrap" parent="1" vertex="1">
          <mxGeometry x="-1180" y="128" width="980" height="832" as="geometry" />
        </mxCell>
        <mxCell id="GKDRDfqeq3WyiDcM14L1-2" value="" style="ellipse;shape=startState;fillColor=#000000;strokeColor=#ff0000;" parent="GKDRDfqeq3WyiDcM14L1-1" vertex="1">
          <mxGeometry x="115.5" y="42" width="30" height="30" as="geometry" />
        </mxCell>
        <mxCell id="GKDRDfqeq3WyiDcM14L1-3" value="" style="edgeStyle=elbowEdgeStyle;elbow=horizontal;verticalAlign=bottom;endArrow=open;endSize=8;strokeColor=#FF0000;endFill=1;rounded=0" parent="GKDRDfqeq3WyiDcM14L1-1" source="GKDRDfqeq3WyiDcM14L1-2" target="GKDRDfqeq3WyiDcM14L1-4" edge="1">
          <mxGeometry x="-64.5" y="-88" as="geometry">
            <mxPoint x="130.5" y="112" as="targetPoint" />
          </mxGeometry>
        </mxCell>
        <mxCell id="GKDRDfqeq3WyiDcM14L1-4" value="Login to the system" style="" parent="GKDRDfqeq3WyiDcM14L1-1" vertex="1">
          <mxGeometry x="75.5" y="112" width="110" height="50" as="geometry" />
        </mxCell>
        <mxCell id="GKDRDfqeq3WyiDcM14L1-5" value="Click print button" style="" parent="GKDRDfqeq3WyiDcM14L1-1" vertex="1">
          <mxGeometry x="75.5" y="272" width="110" height="50" as="geometry" />
        </mxCell>
        <mxCell id="GKDRDfqeq3WyiDcM14L1-12" value="" style="ellipse;shape=endState;fillColor=#000000;strokeColor=#ff0000" parent="GKDRDfqeq3WyiDcM14L1-1" vertex="1">
          <mxGeometry x="460" y="762" width="30" height="30" as="geometry" />
        </mxCell>
        <mxCell id="GKDRDfqeq3WyiDcM14L1-14" style="edgeStyle=orthogonalEdgeStyle;rounded=0;orthogonalLoop=1;jettySize=auto;html=1;exitX=1;exitY=0.5;exitDx=0;exitDy=0;entryX=0;entryY=0.5;entryDx=0;entryDy=0;" parent="GKDRDfqeq3WyiDcM14L1-1" source="GKDRDfqeq3WyiDcM14L1-5" target="GKDRDfqeq3WyiDcM14L1-15" edge="1">
          <mxGeometry relative="1" as="geometry">
            <mxPoint x="270" y="297" as="targetPoint" />
          </mxGeometry>
        </mxCell>
        <mxCell id="4i63veIxNuPRlGVjWGG4-8" value="" style="edgeStyle=orthogonalEdgeStyle;rounded=0;orthogonalLoop=1;jettySize=auto;html=1;" parent="GKDRDfqeq3WyiDcM14L1-1" source="GKDRDfqeq3WyiDcM14L1-15" target="4i63veIxNuPRlGVjWGG4-5" edge="1">
          <mxGeometry relative="1" as="geometry" />
        </mxCell>
        <mxCell id="GKDRDfqeq3WyiDcM14L1-15" value="Set printing schedule" style="" parent="GKDRDfqeq3WyiDcM14L1-1" vertex="1">
          <mxGeometry x="280" y="272" width="120" height="50" as="geometry" />
        </mxCell>
        <mxCell id="GKDRDfqeq3WyiDcM14L1-17" value="Upload file" style="" parent="GKDRDfqeq3WyiDcM14L1-1" vertex="1">
          <mxGeometry x="830" y="272" width="110" height="50" as="geometry" />
        </mxCell>
        <mxCell id="GKDRDfqeq3WyiDcM14L1-19" value="" style="edgeStyle=orthogonalEdgeStyle;rounded=0;orthogonalLoop=1;jettySize=auto;html=1;" parent="GKDRDfqeq3WyiDcM14L1-1" source="GKDRDfqeq3WyiDcM14L1-20" target="GKDRDfqeq3WyiDcM14L1-25" edge="1">
          <mxGeometry relative="1" as="geometry" />
        </mxCell>
        <mxCell id="GKDRDfqeq3WyiDcM14L1-20" value="Set printing options" style="" parent="GKDRDfqeq3WyiDcM14L1-1" vertex="1">
          <mxGeometry x="830" y="382" width="110" height="50" as="geometry" />
        </mxCell>
        <mxCell id="GKDRDfqeq3WyiDcM14L1-21" style="edgeStyle=orthogonalEdgeStyle;rounded=0;orthogonalLoop=1;jettySize=auto;html=1;exitX=0.5;exitY=0;exitDx=0;exitDy=0;" parent="GKDRDfqeq3WyiDcM14L1-1" source="GKDRDfqeq3WyiDcM14L1-25" edge="1">
          <mxGeometry relative="1" as="geometry">
            <mxPoint x="140" y="322" as="targetPoint" />
            <Array as="points">
              <mxPoint x="660" y="354" />
              <mxPoint x="140" y="354" />
              <mxPoint x="140" y="322" />
            </Array>
          </mxGeometry>
        </mxCell>
        <mxCell id="GKDRDfqeq3WyiDcM14L1-22" value="Cancel" style="edgeLabel;html=1;align=center;verticalAlign=middle;resizable=0;points=[];" parent="GKDRDfqeq3WyiDcM14L1-21" vertex="1" connectable="0">
          <mxGeometry x="-0.5996" y="1" relative="1" as="geometry">
            <mxPoint as="offset" />
          </mxGeometry>
        </mxCell>
        <mxCell id="GKDRDfqeq3WyiDcM14L1-23" value="" style="edgeStyle=orthogonalEdgeStyle;rounded=0;orthogonalLoop=1;jettySize=auto;html=1;" parent="GKDRDfqeq3WyiDcM14L1-1" source="GKDRDfqeq3WyiDcM14L1-25" target="GKDRDfqeq3WyiDcM14L1-27" edge="1">
          <mxGeometry relative="1" as="geometry" />
        </mxCell>
        <mxCell id="GKDRDfqeq3WyiDcM14L1-24" value="Resume" style="edgeLabel;html=1;align=center;verticalAlign=middle;resizable=0;points=[];" parent="GKDRDfqeq3WyiDcM14L1-23" vertex="1" connectable="0">
          <mxGeometry x="-0.0187" y="-1" relative="1" as="geometry">
            <mxPoint as="offset" />
          </mxGeometry>
        </mxCell>
        <mxCell id="GKDRDfqeq3WyiDcM14L1-25" value="" style="rhombus;fillColor=#ffffc0;strokeColor=#ff0000;" parent="GKDRDfqeq3WyiDcM14L1-1" vertex="1">
          <mxGeometry x="620" y="387" width="80" height="40" as="geometry" />
        </mxCell>
        <mxCell id="GKDRDfqeq3WyiDcM14L1-27" value="Confirm printing infomation" style="" parent="GKDRDfqeq3WyiDcM14L1-1" vertex="1">
          <mxGeometry x="300" y="382" width="150" height="50" as="geometry" />
        </mxCell>
        <mxCell id="4i63veIxNuPRlGVjWGG4-10" style="edgeStyle=orthogonalEdgeStyle;rounded=0;orthogonalLoop=1;jettySize=auto;html=1;entryX=0.5;entryY=0;entryDx=0;entryDy=0;" parent="GKDRDfqeq3WyiDcM14L1-1" source="4i63veIxNuPRlGVjWGG4-2" target="4i63veIxNuPRlGVjWGG4-3" edge="1">
          <mxGeometry relative="1" as="geometry" />
        </mxCell>
        <mxCell id="4i63veIxNuPRlGVjWGG4-2" value="Booking print" style="" parent="GKDRDfqeq3WyiDcM14L1-1" vertex="1">
          <mxGeometry x="470" y="130" width="110" height="50" as="geometry" />
        </mxCell>
        <mxCell id="4i63veIxNuPRlGVjWGG4-13" value="" style="edgeStyle=orthogonalEdgeStyle;rounded=0;orthogonalLoop=1;jettySize=auto;html=1;" parent="GKDRDfqeq3WyiDcM14L1-1" source="4i63veIxNuPRlGVjWGG4-3" target="GKDRDfqeq3WyiDcM14L1-17" edge="1">
          <mxGeometry relative="1" as="geometry" />
        </mxCell>
        <mxCell id="4i63veIxNuPRlGVjWGG4-3" value="Select printer" style="" parent="GKDRDfqeq3WyiDcM14L1-1" vertex="1">
          <mxGeometry x="670" y="272" width="110" height="50" as="geometry" />
        </mxCell>
        <mxCell id="4i63veIxNuPRlGVjWGG4-7" value="" style="edgeStyle=orthogonalEdgeStyle;rounded=0;orthogonalLoop=1;jettySize=auto;html=1;" parent="GKDRDfqeq3WyiDcM14L1-1" source="4i63veIxNuPRlGVjWGG4-5" target="4i63veIxNuPRlGVjWGG4-2" edge="1">
          <mxGeometry relative="1" as="geometry" />
        </mxCell>
        <mxCell id="4i63veIxNuPRlGVjWGG4-9" value="Booking" style="edgeLabel;html=1;align=center;verticalAlign=middle;resizable=0;points=[];" parent="4i63veIxNuPRlGVjWGG4-7" vertex="1" connectable="0">
          <mxGeometry x="0.0018" relative="1" as="geometry">
            <mxPoint as="offset" />
          </mxGeometry>
        </mxCell>
        <mxCell id="4i63veIxNuPRlGVjWGG4-11" value="" style="edgeStyle=orthogonalEdgeStyle;rounded=0;orthogonalLoop=1;jettySize=auto;html=1;" parent="GKDRDfqeq3WyiDcM14L1-1" source="4i63veIxNuPRlGVjWGG4-5" target="4i63veIxNuPRlGVjWGG4-3" edge="1">
          <mxGeometry relative="1" as="geometry" />
        </mxCell>
        <mxCell id="4i63veIxNuPRlGVjWGG4-12" value="Not booking" style="edgeLabel;html=1;align=center;verticalAlign=middle;resizable=0;points=[];" parent="4i63veIxNuPRlGVjWGG4-11" vertex="1" connectable="0">
          <mxGeometry x="-0.0281" y="1" relative="1" as="geometry">
            <mxPoint x="-7" y="1" as="offset" />
          </mxGeometry>
        </mxCell>
        <mxCell id="4i63veIxNuPRlGVjWGG4-5" value="" style="rhombus;fillColor=#ffffc0;strokeColor=#ff0000;" parent="GKDRDfqeq3WyiDcM14L1-1" vertex="1">
          <mxGeometry x="485" y="277" width="80" height="40" as="geometry" />
        </mxCell>
        <mxCell id="GKDRDfqeq3WyiDcM14L1-31" value="SSPS" style="swimlane;whiteSpace=wrap" parent="1" vertex="1">
          <mxGeometry x="-200" y="128" width="1060" height="832" as="geometry" />
        </mxCell>
        <mxCell id="YklkddBsamPWfL6e4jBo-3" value="" style="edgeStyle=orthogonalEdgeStyle;rounded=0;orthogonalLoop=1;jettySize=auto;html=1;" parent="GKDRDfqeq3WyiDcM14L1-31" source="GKDRDfqeq3WyiDcM14L1-32" target="YklkddBsamPWfL6e4jBo-2" edge="1">
          <mxGeometry relative="1" as="geometry" />
        </mxCell>
        <mxCell id="YklkddBsamPWfL6e4jBo-4" value="Invalid" style="edgeLabel;html=1;align=center;verticalAlign=middle;resizable=0;points=[];" parent="YklkddBsamPWfL6e4jBo-3" vertex="1" connectable="0">
          <mxGeometry x="-0.0329" y="-2" relative="1" as="geometry">
            <mxPoint as="offset" />
          </mxGeometry>
        </mxCell>
        <mxCell id="GKDRDfqeq3WyiDcM14L1-32" value="" style="rhombus;fillColor=#ffffc0;strokeColor=#ff0000;" parent="GKDRDfqeq3WyiDcM14L1-31" vertex="1">
          <mxGeometry x="290" y="277" width="80" height="40" as="geometry" />
        </mxCell>
        <mxCell id="GKDRDfqeq3WyiDcM14L1-33" value="" style="edgeStyle=orthogonalEdgeStyle;rounded=0;orthogonalLoop=1;jettySize=auto;html=1;" parent="GKDRDfqeq3WyiDcM14L1-31" source="GKDRDfqeq3WyiDcM14L1-34" target="GKDRDfqeq3WyiDcM14L1-32" edge="1">
          <mxGeometry relative="1" as="geometry" />
        </mxCell>
        <mxCell id="GKDRDfqeq3WyiDcM14L1-34" value="Check file format" style="" parent="GKDRDfqeq3WyiDcM14L1-31" vertex="1">
          <mxGeometry x="70" y="272" width="110" height="50" as="geometry" />
        </mxCell>
        <mxCell id="NRAzxZptRmk-F_pFhzen-7" style="edgeStyle=orthogonalEdgeStyle;rounded=0;orthogonalLoop=1;jettySize=auto;html=1;entryX=1;entryY=0.5;entryDx=0;entryDy=0;exitX=0.5;exitY=1;exitDx=0;exitDy=0;" parent="GKDRDfqeq3WyiDcM14L1-31" source="GKDRDfqeq3WyiDcM14L1-36" target="GKDRDfqeq3WyiDcM14L1-42" edge="1">
          <mxGeometry relative="1" as="geometry">
            <Array as="points">
              <mxPoint x="290" y="667" />
            </Array>
          </mxGeometry>
        </mxCell>
        <mxCell id="NRAzxZptRmk-F_pFhzen-8" value="Not enough" style="edgeLabel;html=1;align=center;verticalAlign=middle;resizable=0;points=[];" parent="NRAzxZptRmk-F_pFhzen-7" vertex="1" connectable="0">
          <mxGeometry x="-0.6475" y="-1" relative="1" as="geometry">
            <mxPoint as="offset" />
          </mxGeometry>
        </mxCell>
        <mxCell id="GKDRDfqeq3WyiDcM14L1-36" value="" style="rhombus;fillColor=#ffffc0;strokeColor=#ff0000;" parent="GKDRDfqeq3WyiDcM14L1-31" vertex="1">
          <mxGeometry x="250" y="507" width="80" height="40" as="geometry" />
        </mxCell>
        <mxCell id="GKDRDfqeq3WyiDcM14L1-37" value="Enough" style="edgeStyle=orthogonalEdgeStyle;rounded=0;orthogonalLoop=1;jettySize=auto;html=1;exitX=1;exitY=0.5;exitDx=0;exitDy=0;entryX=0;entryY=0.5;entryDx=0;entryDy=0;" parent="GKDRDfqeq3WyiDcM14L1-31" source="GKDRDfqeq3WyiDcM14L1-36" target="NRAzxZptRmk-F_pFhzen-9" edge="1">
          <mxGeometry relative="1" as="geometry">
            <mxPoint x="710" y="412" as="sourcePoint" />
            <mxPoint x="420" y="527" as="targetPoint" />
          </mxGeometry>
        </mxCell>
        <mxCell id="GKDRDfqeq3WyiDcM14L1-38" value="" style="edgeStyle=orthogonalEdgeStyle;rounded=0;orthogonalLoop=1;jettySize=auto;html=1;" parent="GKDRDfqeq3WyiDcM14L1-31" source="GKDRDfqeq3WyiDcM14L1-39" target="GKDRDfqeq3WyiDcM14L1-36" edge="1">
          <mxGeometry relative="1" as="geometry" />
        </mxCell>
        <mxCell id="GKDRDfqeq3WyiDcM14L1-39" value="Check student&#39;s &#xa;remaining pages" style="" parent="GKDRDfqeq3WyiDcM14L1-31" vertex="1">
          <mxGeometry x="70" y="502" width="110" height="50" as="geometry" />
        </mxCell>
        <mxCell id="GKDRDfqeq3WyiDcM14L1-40" value="" style="edgeStyle=orthogonalEdgeStyle;rounded=0;orthogonalLoop=1;jettySize=auto;html=1;" parent="GKDRDfqeq3WyiDcM14L1-31" source="GKDRDfqeq3WyiDcM14L1-41" target="GKDRDfqeq3WyiDcM14L1-45" edge="1">
          <mxGeometry relative="1" as="geometry" />
        </mxCell>
        <mxCell id="GKDRDfqeq3WyiDcM14L1-41" value="Make the&#xa;printing" style="" parent="GKDRDfqeq3WyiDcM14L1-31" vertex="1">
          <mxGeometry x="750" y="502" width="110" height="50" as="geometry" />
        </mxCell>
        <mxCell id="GKDRDfqeq3WyiDcM14L1-45" value="" style="rhombus;fillColor=#ffffc0;strokeColor=#ff0000;" parent="GKDRDfqeq3WyiDcM14L1-31" vertex="1">
          <mxGeometry x="900" y="507" width="80" height="40" as="geometry" />
        </mxCell>
        <mxCell id="YklkddBsamPWfL6e4jBo-2" value="Give warning that &#xa;invalid file format" style="" parent="GKDRDfqeq3WyiDcM14L1-31" vertex="1">
          <mxGeometry x="560" y="272" width="110" height="50" as="geometry" />
        </mxCell>
        <mxCell id="GKDRDfqeq3WyiDcM14L1-11" value="Buy more paper" style="" parent="GKDRDfqeq3WyiDcM14L1-31" vertex="1">
          <mxGeometry x="-904.5" y="642" width="110" height="48" as="geometry" />
        </mxCell>
        <mxCell id="NRAzxZptRmk-F_pFhzen-2" style="edgeStyle=orthogonalEdgeStyle;rounded=0;orthogonalLoop=1;jettySize=auto;html=1;entryX=1;entryY=0.5;entryDx=0;entryDy=0;" parent="GKDRDfqeq3WyiDcM14L1-31" source="NRAzxZptRmk-F_pFhzen-1" target="GKDRDfqeq3WyiDcM14L1-11" edge="1">
          <mxGeometry relative="1" as="geometry" />
        </mxCell>
        <mxCell id="NRAzxZptRmk-F_pFhzen-5" value="Buy more paper" style="edgeLabel;html=1;align=center;verticalAlign=middle;resizable=0;points=[];" parent="NRAzxZptRmk-F_pFhzen-2" vertex="1" connectable="0">
          <mxGeometry x="0.0008" y="-3" relative="1" as="geometry">
            <mxPoint as="offset" />
          </mxGeometry>
        </mxCell>
        <mxCell id="NRAzxZptRmk-F_pFhzen-1" value="" style="rhombus;fillColor=#ffffc0;strokeColor=#ff0000;" parent="GKDRDfqeq3WyiDcM14L1-31" vertex="1">
          <mxGeometry x="-545" y="646" width="80" height="40" as="geometry" />
        </mxCell>
        <mxCell id="GKDRDfqeq3WyiDcM14L1-42" value="Notify user that &#xa;run out of printing pages " style="" parent="GKDRDfqeq3WyiDcM14L1-31" vertex="1">
          <mxGeometry x="70" y="642" width="140" height="50" as="geometry" />
        </mxCell>
        <mxCell id="GKDRDfqeq3WyiDcM14L1-65" style="edgeStyle=orthogonalEdgeStyle;rounded=0;orthogonalLoop=1;jettySize=auto;html=1;entryX=1;entryY=0.5;entryDx=0;entryDy=0;" parent="GKDRDfqeq3WyiDcM14L1-31" source="GKDRDfqeq3WyiDcM14L1-42" target="NRAzxZptRmk-F_pFhzen-1" edge="1">
          <mxGeometry relative="1" as="geometry">
            <Array as="points">
              <mxPoint x="-320" y="667" />
            </Array>
          </mxGeometry>
        </mxCell>
        <mxCell id="NRAzxZptRmk-F_pFhzen-11" value="" style="edgeStyle=orthogonalEdgeStyle;rounded=0;orthogonalLoop=1;jettySize=auto;html=1;" parent="GKDRDfqeq3WyiDcM14L1-31" source="NRAzxZptRmk-F_pFhzen-9" target="NRAzxZptRmk-F_pFhzen-10" edge="1">
          <mxGeometry relative="1" as="geometry" />
        </mxCell>
        <mxCell id="NRAzxZptRmk-F_pFhzen-9" value="Check printer&#39;s &#xa;remaining pages" style="" parent="GKDRDfqeq3WyiDcM14L1-31" vertex="1">
          <mxGeometry x="430" y="502" width="110" height="50" as="geometry" />
        </mxCell>
        <mxCell id="NRAzxZptRmk-F_pFhzen-12" value="" style="edgeStyle=orthogonalEdgeStyle;rounded=0;orthogonalLoop=1;jettySize=auto;html=1;" parent="GKDRDfqeq3WyiDcM14L1-31" source="NRAzxZptRmk-F_pFhzen-10" target="GKDRDfqeq3WyiDcM14L1-41" edge="1">
          <mxGeometry relative="1" as="geometry" />
        </mxCell>
        <mxCell id="NRAzxZptRmk-F_pFhzen-13" value="Enough" style="edgeLabel;html=1;align=center;verticalAlign=middle;resizable=0;points=[];" parent="NRAzxZptRmk-F_pFhzen-12" vertex="1" connectable="0">
          <mxGeometry x="-0.0655" relative="1" as="geometry">
            <mxPoint as="offset" />
          </mxGeometry>
        </mxCell>
        <mxCell id="NRAzxZptRmk-F_pFhzen-15" style="edgeStyle=orthogonalEdgeStyle;rounded=0;orthogonalLoop=1;jettySize=auto;html=1;entryX=1;entryY=0.5;entryDx=0;entryDy=0;" parent="GKDRDfqeq3WyiDcM14L1-31" source="NRAzxZptRmk-F_pFhzen-10" target="NRAzxZptRmk-F_pFhzen-14" edge="1">
          <mxGeometry relative="1" as="geometry">
            <Array as="points">
              <mxPoint x="630" y="711" />
            </Array>
          </mxGeometry>
        </mxCell>
        <mxCell id="NRAzxZptRmk-F_pFhzen-17" value="Not enough" style="edgeLabel;html=1;align=center;verticalAlign=middle;resizable=0;points=[];" parent="NRAzxZptRmk-F_pFhzen-15" vertex="1" connectable="0">
          <mxGeometry x="-0.606" y="-1" relative="1" as="geometry">
            <mxPoint as="offset" />
          </mxGeometry>
        </mxCell>
        <mxCell id="NRAzxZptRmk-F_pFhzen-10" value="" style="rhombus;fillColor=#ffffc0;strokeColor=#ff0000;" parent="GKDRDfqeq3WyiDcM14L1-31" vertex="1">
          <mxGeometry x="590" y="507" width="80" height="40" as="geometry" />
        </mxCell>
        <mxCell id="NRAzxZptRmk-F_pFhzen-14" value="Notify user that run out of &#xa;printer&#39;s available pages " style="" parent="GKDRDfqeq3WyiDcM14L1-31" vertex="1">
          <mxGeometry x="420" y="686" width="150" height="50" as="geometry" />
        </mxCell>
        <mxCell id="GKDRDfqeq3WyiDcM14L1-47" value="HCMUT_SSO" style="swimlane;whiteSpace=wrap" parent="1" vertex="1">
          <mxGeometry x="-1450" y="128" width="270" height="832" as="geometry" />
        </mxCell>
        <mxCell id="GKDRDfqeq3WyiDcM14L1-48" style="edgeStyle=orthogonalEdgeStyle;rounded=0;orthogonalLoop=1;jettySize=auto;html=1;entryX=0.5;entryY=0;entryDx=0;entryDy=0;" parent="GKDRDfqeq3WyiDcM14L1-47" source="GKDRDfqeq3WyiDcM14L1-49" target="GKDRDfqeq3WyiDcM14L1-52" edge="1">
          <mxGeometry relative="1" as="geometry" />
        </mxCell>
        <mxCell id="GKDRDfqeq3WyiDcM14L1-49" value="Authorize" style="" parent="GKDRDfqeq3WyiDcM14L1-47" vertex="1">
          <mxGeometry x="70" y="112" width="110" height="50" as="geometry" />
        </mxCell>
        <mxCell id="GKDRDfqeq3WyiDcM14L1-50" style="edgeStyle=orthogonalEdgeStyle;rounded=0;orthogonalLoop=1;jettySize=auto;html=1;entryX=0.5;entryY=0;entryDx=0;entryDy=0;" parent="GKDRDfqeq3WyiDcM14L1-47" source="GKDRDfqeq3WyiDcM14L1-52" target="GKDRDfqeq3WyiDcM14L1-53" edge="1">
          <mxGeometry relative="1" as="geometry">
            <mxPoint x="125" y="862" as="targetPoint" />
          </mxGeometry>
        </mxCell>
        <mxCell id="GKDRDfqeq3WyiDcM14L1-51" value="Invalid" style="edgeLabel;html=1;align=center;verticalAlign=middle;resizable=0;points=[];" parent="GKDRDfqeq3WyiDcM14L1-50" vertex="1" connectable="0">
          <mxGeometry x="-0.1403" relative="1" as="geometry">
            <mxPoint as="offset" />
          </mxGeometry>
        </mxCell>
        <mxCell id="GKDRDfqeq3WyiDcM14L1-52" value="" style="rhombus;fillColor=#ffffc0;strokeColor=#ff0000;" parent="GKDRDfqeq3WyiDcM14L1-47" vertex="1">
          <mxGeometry x="85" y="212" width="80" height="40" as="geometry" />
        </mxCell>
        <mxCell id="GKDRDfqeq3WyiDcM14L1-53" value="Give warning that &#xa;invalid login" style="" parent="GKDRDfqeq3WyiDcM14L1-47" vertex="1">
          <mxGeometry x="70" y="752" width="110" height="50" as="geometry" />
        </mxCell>
        <mxCell id="GKDRDfqeq3WyiDcM14L1-54" style="edgeStyle=orthogonalEdgeStyle;rounded=0;orthogonalLoop=1;jettySize=auto;html=1;entryX=0.5;entryY=0;entryDx=0;entryDy=0;" parent="1" source="GKDRDfqeq3WyiDcM14L1-52" target="GKDRDfqeq3WyiDcM14L1-5" edge="1">
          <mxGeometry relative="1" as="geometry">
            <mxPoint x="-1202.6149999999998" y="360.3499999999999" as="targetPoint" />
          </mxGeometry>
        </mxCell>
        <mxCell id="GKDRDfqeq3WyiDcM14L1-55" value="Valid" style="edgeLabel;html=1;align=center;verticalAlign=middle;resizable=0;points=[];" parent="GKDRDfqeq3WyiDcM14L1-54" vertex="1" connectable="0">
          <mxGeometry x="-0.9487" y="-1" relative="1" as="geometry">
            <mxPoint x="47" y="-1" as="offset" />
          </mxGeometry>
        </mxCell>
        <mxCell id="GKDRDfqeq3WyiDcM14L1-58" value="" style="edgeStyle=orthogonalEdgeStyle;rounded=0;orthogonalLoop=1;jettySize=auto;html=1;" parent="1" source="GKDRDfqeq3WyiDcM14L1-17" target="GKDRDfqeq3WyiDcM14L1-34" edge="1">
          <mxGeometry relative="1" as="geometry" />
        </mxCell>
        <mxCell id="GKDRDfqeq3WyiDcM14L1-59" style="edgeStyle=orthogonalEdgeStyle;rounded=0;orthogonalLoop=1;jettySize=auto;html=1;exitX=0.5;exitY=0;exitDx=0;exitDy=0;entryX=0.5;entryY=0;entryDx=0;entryDy=0;" parent="1" source="YklkddBsamPWfL6e4jBo-2" target="GKDRDfqeq3WyiDcM14L1-17" edge="1">
          <mxGeometry relative="1" as="geometry">
            <Array as="points">
              <mxPoint x="415" y="380" />
              <mxPoint x="-295" y="380" />
            </Array>
          </mxGeometry>
        </mxCell>
        <mxCell id="GKDRDfqeq3WyiDcM14L1-61" style="edgeStyle=orthogonalEdgeStyle;rounded=0;orthogonalLoop=1;jettySize=auto;html=1;exitX=0.5;exitY=1;exitDx=0;exitDy=0;entryX=1;entryY=0.5;entryDx=0;entryDy=0;" parent="1" source="GKDRDfqeq3WyiDcM14L1-32" target="GKDRDfqeq3WyiDcM14L1-20" edge="1">
          <mxGeometry relative="1" as="geometry" />
        </mxCell>
        <mxCell id="GKDRDfqeq3WyiDcM14L1-62" value="Valid" style="edgeLabel;html=1;align=center;verticalAlign=middle;resizable=0;points=[];" parent="GKDRDfqeq3WyiDcM14L1-61" vertex="1" connectable="0">
          <mxGeometry x="-0.6685" y="1" relative="1" as="geometry">
            <mxPoint x="-1" y="-34" as="offset" />
          </mxGeometry>
        </mxCell>
        <mxCell id="GKDRDfqeq3WyiDcM14L1-66" style="edgeStyle=orthogonalEdgeStyle;rounded=0;orthogonalLoop=1;jettySize=auto;html=1;exitX=0;exitY=0.5;exitDx=0;exitDy=0;entryX=1;entryY=0.5;entryDx=0;entryDy=0;" parent="1" source="GKDRDfqeq3WyiDcM14L1-4" target="GKDRDfqeq3WyiDcM14L1-49" edge="1">
          <mxGeometry relative="1" as="geometry" />
        </mxCell>
        <mxCell id="GKDRDfqeq3WyiDcM14L1-70" style="edgeStyle=orthogonalEdgeStyle;rounded=0;orthogonalLoop=1;jettySize=auto;html=1;exitX=0.5;exitY=1;exitDx=0;exitDy=0;entryX=0;entryY=0.5;entryDx=0;entryDy=0;" parent="1" source="GKDRDfqeq3WyiDcM14L1-27" target="GKDRDfqeq3WyiDcM14L1-39" edge="1">
          <mxGeometry relative="1" as="geometry" />
        </mxCell>
        <mxCell id="GKDRDfqeq3WyiDcM14L1-56" style="edgeStyle=orthogonalEdgeStyle;rounded=0;orthogonalLoop=1;jettySize=auto;html=1;entryX=1;entryY=0.5;entryDx=0;entryDy=0;exitX=1;exitY=0.5;exitDx=0;exitDy=0;" parent="1" source="GKDRDfqeq3WyiDcM14L1-45" target="GKDRDfqeq3WyiDcM14L1-12" edge="1">
          <mxGeometry relative="1" as="geometry">
            <Array as="points">
              <mxPoint x="840" y="655" />
              <mxPoint x="840" y="905" />
            </Array>
            <mxPoint x="-700" y="880" as="targetPoint" />
          </mxGeometry>
        </mxCell>
        <mxCell id="GKDRDfqeq3WyiDcM14L1-57" value="Success" style="edgeLabel;html=1;align=center;verticalAlign=middle;resizable=0;points=[];" parent="GKDRDfqeq3WyiDcM14L1-56" vertex="1" connectable="0">
          <mxGeometry x="-0.9067" y="2" relative="1" as="geometry">
            <mxPoint x="-32" y="-25" as="offset" />
          </mxGeometry>
        </mxCell>
        <mxCell id="hS_AV6T1pqVw71CIB5NV-2" style="edgeStyle=orthogonalEdgeStyle;rounded=0;orthogonalLoop=1;jettySize=auto;html=1;entryX=0;entryY=0.5;entryDx=0;entryDy=0;" parent="1" source="GKDRDfqeq3WyiDcM14L1-53" target="GKDRDfqeq3WyiDcM14L1-12" edge="1">
          <mxGeometry relative="1" as="geometry" />
        </mxCell>
        <mxCell id="GKDRDfqeq3WyiDcM14L1-43" style="edgeStyle=orthogonalEdgeStyle;rounded=0;orthogonalLoop=1;jettySize=auto;html=1;exitX=0.5;exitY=0;exitDx=0;exitDy=0;" parent="1" source="GKDRDfqeq3WyiDcM14L1-45" edge="1">
          <mxGeometry relative="1" as="geometry">
            <Array as="points">
              <mxPoint x="740" y="600" />
              <mxPoint x="-760" y="600" />
            </Array>
            <mxPoint x="-760" y="560" as="targetPoint" />
          </mxGeometry>
        </mxCell>
        <mxCell id="GKDRDfqeq3WyiDcM14L1-44" value="Occur error" style="edgeLabel;html=1;align=center;verticalAlign=middle;resizable=0;points=[];" parent="GKDRDfqeq3WyiDcM14L1-43" vertex="1" connectable="0">
          <mxGeometry x="0.0296" y="-1" relative="1" as="geometry">
            <mxPoint x="710" as="offset" />
          </mxGeometry>
        </mxCell>
        <mxCell id="GKDRDfqeq3WyiDcM14L1-72" style="edgeStyle=orthogonalEdgeStyle;rounded=0;orthogonalLoop=1;jettySize=auto;html=1;exitX=0.25;exitY=0;exitDx=0;exitDy=0;entryX=0.25;entryY=1;entryDx=0;entryDy=0;" parent="1" source="GKDRDfqeq3WyiDcM14L1-11" target="GKDRDfqeq3WyiDcM14L1-5" edge="1">
          <mxGeometry relative="1" as="geometry" />
        </mxCell>
        <mxCell id="NRAzxZptRmk-F_pFhzen-4" style="edgeStyle=orthogonalEdgeStyle;rounded=0;orthogonalLoop=1;jettySize=auto;html=1;entryX=0.5;entryY=0;entryDx=0;entryDy=0;" parent="1" source="NRAzxZptRmk-F_pFhzen-1" target="GKDRDfqeq3WyiDcM14L1-12" edge="1">
          <mxGeometry relative="1" as="geometry" />
        </mxCell>
        <mxCell id="NRAzxZptRmk-F_pFhzen-6" value="Exit" style="edgeLabel;html=1;align=center;verticalAlign=middle;resizable=0;points=[];" parent="NRAzxZptRmk-F_pFhzen-4" vertex="1" connectable="0">
          <mxGeometry x="-0.0775" y="2" relative="1" as="geometry">
            <mxPoint as="offset" />
          </mxGeometry>
        </mxCell>
        <mxCell id="NRAzxZptRmk-F_pFhzen-16" style="edgeStyle=orthogonalEdgeStyle;rounded=0;orthogonalLoop=1;jettySize=auto;html=1;entryX=0.607;entryY=1.008;entryDx=0;entryDy=0;entryPerimeter=0;" parent="1" source="NRAzxZptRmk-F_pFhzen-14" target="4i63veIxNuPRlGVjWGG4-3" edge="1">
          <mxGeometry relative="1" as="geometry" />
        </mxCell>
      </root>
    </mxGraphModel>
  </diagram>
  <diagram id="OY2lBh-2cs0mhRsI-a2k" name="Component">
    <mxGraphModel dx="5908" dy="2268" grid="1" gridSize="10" guides="1" tooltips="1" connect="1" arrows="1" fold="1" page="1" pageScale="1" pageWidth="850" pageHeight="1100" math="0" shadow="0">
      <root>
        <mxCell id="0" />
        <mxCell id="1" parent="0" />
        <mxCell id="aWz43SULXHOgwargIqAo-1" value="&lt;p style=&quot;margin:0px;margin-top:6px;text-align:center;&quot;&gt;&lt;b&gt;&amp;lt;&amp;lt;subsystem&amp;gt;&amp;gt;&lt;/b&gt;&lt;/p&gt;&lt;p style=&quot;margin:0px;margin-top:6px;text-align:center;&quot;&gt;&lt;b&gt;Printing&lt;/b&gt;&lt;/p&gt;&lt;hr size=&quot;1&quot; style=&quot;border-style:solid;&quot;&gt;&lt;p style=&quot;margin:0px;margin-left:8px;&quot;&gt;&lt;br&gt;&lt;br&gt;&lt;/p&gt;" style="align=left;overflow=fill;html=1;dropTarget=0;whiteSpace=wrap;rotation=0;" parent="1" vertex="1">
          <mxGeometry x="-1810" y="1044.5" width="3340" height="749" as="geometry" />
        </mxCell>
        <mxCell id="aWz43SULXHOgwargIqAo-2" value="" style="shape=component;jettyWidth=8;jettyHeight=4;" parent="aWz43SULXHOgwargIqAo-1" vertex="1">
          <mxGeometry x="1" width="20" height="20" relative="1" as="geometry">
            <mxPoint x="-24" y="4" as="offset" />
          </mxGeometry>
        </mxCell>
        <mxCell id="aWz43SULXHOgwargIqAo-3" value="&lt;p style=&quot;margin:0px;margin-top:6px;text-align:center;&quot;&gt;&lt;b&gt;&amp;lt;&amp;lt;subsystem&amp;gt;&amp;gt;&lt;/b&gt;&lt;/p&gt;&lt;p style=&quot;margin:0px;margin-top:6px;text-align:center;&quot;&gt;&lt;b&gt;Remaining page&lt;/b&gt;&lt;/p&gt;&lt;hr size=&quot;1&quot; style=&quot;border-style:solid;&quot;&gt;&lt;p style=&quot;margin:0px;margin-left:8px;&quot;&gt;&lt;br&gt;&lt;br&gt;&lt;/p&gt;" style="align=left;overflow=fill;html=1;dropTarget=0;whiteSpace=wrap;rotation=0;" parent="1" vertex="1">
          <mxGeometry x="225" y="1309" width="700" height="472" as="geometry" />
        </mxCell>
        <mxCell id="aWz43SULXHOgwargIqAo-4" value="" style="shape=component;jettyWidth=8;jettyHeight=4;" parent="aWz43SULXHOgwargIqAo-3" vertex="1">
          <mxGeometry x="1" width="20" height="20" relative="1" as="geometry">
            <mxPoint x="-24" y="4" as="offset" />
          </mxGeometry>
        </mxCell>
        <mxCell id="aWz43SULXHOgwargIqAo-5" value="«component»&lt;br&gt;&lt;b&gt;User Authentication&lt;/b&gt;" style="html=1;dropTarget=0;whiteSpace=wrap;" parent="1" vertex="1">
          <mxGeometry x="-1780" y="1389" width="180" height="90" as="geometry" />
        </mxCell>
        <mxCell id="aWz43SULXHOgwargIqAo-6" value="" style="shape=module;jettyWidth=8;jettyHeight=4;" parent="aWz43SULXHOgwargIqAo-5" vertex="1">
          <mxGeometry x="1" width="20" height="20" relative="1" as="geometry">
            <mxPoint x="-27" y="7" as="offset" />
          </mxGeometry>
        </mxCell>
        <mxCell id="aWz43SULXHOgwargIqAo-7" value="«component»&lt;br&gt;&lt;b&gt;Printing Booking&lt;/b&gt;" style="html=1;dropTarget=0;whiteSpace=wrap;" parent="1" vertex="1">
          <mxGeometry x="-960" y="1509" width="180" height="90" as="geometry" />
        </mxCell>
        <mxCell id="aWz43SULXHOgwargIqAo-8" value="" style="shape=module;jettyWidth=8;jettyHeight=4;" parent="aWz43SULXHOgwargIqAo-7" vertex="1">
          <mxGeometry x="1" width="20" height="20" relative="1" as="geometry">
            <mxPoint x="-27" y="7" as="offset" />
          </mxGeometry>
        </mxCell>
        <mxCell id="aWz43SULXHOgwargIqAo-9" value="" style="ellipse;whiteSpace=wrap;html=1;align=center;aspect=fixed;fillColor=none;strokeColor=none;resizable=0;perimeter=centerPerimeter;rotatable=0;allowArrows=0;points=[];outlineConnect=1;" parent="1" vertex="1">
          <mxGeometry x="-320" y="1680" width="10" height="10" as="geometry" />
        </mxCell>
        <mxCell id="aWz43SULXHOgwargIqAo-10" value="" style="ellipse;whiteSpace=wrap;html=1;align=center;aspect=fixed;fillColor=none;strokeColor=none;resizable=0;perimeter=centerPerimeter;rotatable=0;allowArrows=0;points=[];outlineConnect=1;" parent="1" vertex="1">
          <mxGeometry x="-305" y="1680" width="10" height="10" as="geometry" />
        </mxCell>
        <mxCell id="aWz43SULXHOgwargIqAo-11" value="" style="rounded=0;orthogonalLoop=1;jettySize=auto;html=1;endArrow=halfCircle;endFill=0;endSize=6;strokeWidth=1;sketch=0;exitX=0;exitY=0.5;exitDx=0;exitDy=0;" parent="1" source="aWz43SULXHOgwargIqAo-31" edge="1">
          <mxGeometry relative="1" as="geometry">
            <mxPoint x="-1010" y="1489" as="sourcePoint" />
            <mxPoint x="-1060" y="1554" as="targetPoint" />
          </mxGeometry>
        </mxCell>
        <mxCell id="aWz43SULXHOgwargIqAo-12" value="" style="rounded=0;orthogonalLoop=1;jettySize=auto;html=1;endArrow=oval;endFill=0;sketch=0;sourcePerimeterSpacing=0;targetPerimeterSpacing=0;endSize=10;exitX=1;exitY=0.5;exitDx=0;exitDy=0;" parent="1" source="aWz43SULXHOgwargIqAo-32" target="aWz43SULXHOgwargIqAo-13" edge="1">
          <mxGeometry relative="1" as="geometry">
            <mxPoint x="-1050" y="1369" as="sourcePoint" />
          </mxGeometry>
        </mxCell>
        <mxCell id="aWz43SULXHOgwargIqAo-13" value="" style="ellipse;whiteSpace=wrap;html=1;align=center;aspect=fixed;fillColor=none;strokeColor=none;resizable=0;perimeter=centerPerimeter;rotatable=0;allowArrows=0;points=[];outlineConnect=1;" parent="1" vertex="1">
          <mxGeometry x="-1130" y="1429" width="10" height="10" as="geometry" />
        </mxCell>
        <mxCell id="aWz43SULXHOgwargIqAo-14" value="«component»&lt;br&gt;&lt;b&gt;Printer Selection&lt;/b&gt;" style="html=1;dropTarget=0;whiteSpace=wrap;" parent="1" vertex="1">
          <mxGeometry x="-515" y="1508" width="180" height="90" as="geometry" />
        </mxCell>
        <mxCell id="aWz43SULXHOgwargIqAo-15" value="" style="shape=module;jettyWidth=8;jettyHeight=4;" parent="aWz43SULXHOgwargIqAo-14" vertex="1">
          <mxGeometry x="1" width="20" height="20" relative="1" as="geometry">
            <mxPoint x="-27" y="7" as="offset" />
          </mxGeometry>
        </mxCell>
        <mxCell id="aWz43SULXHOgwargIqAo-16" value="" style="rounded=0;orthogonalLoop=1;jettySize=auto;html=1;endArrow=halfCircle;endFill=0;endSize=6;strokeWidth=1;sketch=0;exitX=0;exitY=0.5;exitDx=0;exitDy=0;" parent="1" source="aWz43SULXHOgwargIqAo-29" edge="1">
          <mxGeometry relative="1" as="geometry">
            <mxPoint x="-670" y="1469" as="sourcePoint" />
            <mxPoint x="-650" y="1554" as="targetPoint" />
          </mxGeometry>
        </mxCell>
        <mxCell id="aWz43SULXHOgwargIqAo-17" value="" style="rounded=0;orthogonalLoop=1;jettySize=auto;html=1;endArrow=oval;endFill=0;sketch=0;sourcePerimeterSpacing=0;targetPerimeterSpacing=0;endSize=10;exitX=1;exitY=0.5;exitDx=0;exitDy=0;" parent="1" source="aWz43SULXHOgwargIqAo-30" edge="1">
          <mxGeometry relative="1" as="geometry">
            <mxPoint x="-960" y="1304" as="sourcePoint" />
            <mxPoint x="-650" y="1554" as="targetPoint" />
          </mxGeometry>
        </mxCell>
        <mxCell id="aWz43SULXHOgwargIqAo-18" value="" style="ellipse;whiteSpace=wrap;html=1;align=center;aspect=fixed;fillColor=none;strokeColor=none;resizable=0;perimeter=centerPerimeter;rotatable=0;allowArrows=0;points=[];outlineConnect=1;" parent="1" vertex="1">
          <mxGeometry x="-945" y="1299" width="10" height="10" as="geometry" />
        </mxCell>
        <mxCell id="aWz43SULXHOgwargIqAo-19" value="«component»&lt;br&gt;&lt;b&gt;File Validation&lt;/b&gt;" style="html=1;dropTarget=0;whiteSpace=wrap;" parent="1" vertex="1">
          <mxGeometry x="-520" y="1310" width="180" height="90" as="geometry" />
        </mxCell>
        <mxCell id="aWz43SULXHOgwargIqAo-20" value="" style="shape=module;jettyWidth=8;jettyHeight=4;" parent="aWz43SULXHOgwargIqAo-19" vertex="1">
          <mxGeometry x="1" width="20" height="20" relative="1" as="geometry">
            <mxPoint x="-27" y="7" as="offset" />
          </mxGeometry>
        </mxCell>
        <mxCell id="aWz43SULXHOgwargIqAo-21" value="" style="rounded=0;orthogonalLoop=1;jettySize=auto;html=1;endArrow=oval;endFill=0;sketch=0;sourcePerimeterSpacing=0;targetPerimeterSpacing=0;endSize=10;exitX=1;exitY=0.5;exitDx=0;exitDy=0;" parent="1" source="aWz43SULXHOgwargIqAo-25" edge="1">
          <mxGeometry relative="1" as="geometry">
            <mxPoint x="-950" y="1684" as="sourcePoint" />
            <mxPoint x="-220" y="1439" as="targetPoint" />
            <Array as="points">
              <mxPoint x="-220" y="1354" />
            </Array>
          </mxGeometry>
        </mxCell>
        <mxCell id="aWz43SULXHOgwargIqAo-22" value="" style="rounded=0;orthogonalLoop=1;jettySize=auto;html=1;endArrow=halfCircle;endFill=0;endSize=6;strokeWidth=1;sketch=0;exitX=0;exitY=0.5;exitDx=0;exitDy=0;" parent="1" source="aWz43SULXHOgwargIqAo-27" edge="1">
          <mxGeometry relative="1" as="geometry">
            <mxPoint x="-150" y="1439" as="sourcePoint" />
            <mxPoint x="-220" y="1439" as="targetPoint" />
          </mxGeometry>
        </mxCell>
        <mxCell id="aWz43SULXHOgwargIqAo-23" value="«component»&lt;br&gt;&lt;b&gt;Printing Cofiguration&lt;/b&gt;" style="html=1;dropTarget=0;whiteSpace=wrap;" parent="1" vertex="1">
          <mxGeometry x="-30" y="1389" width="180" height="90" as="geometry" />
        </mxCell>
        <mxCell id="aWz43SULXHOgwargIqAo-24" value="" style="shape=module;jettyWidth=8;jettyHeight=4;" parent="aWz43SULXHOgwargIqAo-23" vertex="1">
          <mxGeometry x="1" width="20" height="20" relative="1" as="geometry">
            <mxPoint x="-27" y="7" as="offset" />
          </mxGeometry>
        </mxCell>
        <mxCell id="aWz43SULXHOgwargIqAo-25" value="" style="html=1;rounded=0;" parent="1" vertex="1">
          <mxGeometry x="-350" y="1345" width="20" height="20" as="geometry" />
        </mxCell>
        <mxCell id="aWz43SULXHOgwargIqAo-26" value="" style="html=1;rounded=0;" parent="1" vertex="1">
          <mxGeometry x="140" y="1429" width="20" height="20" as="geometry" />
        </mxCell>
        <mxCell id="aWz43SULXHOgwargIqAo-27" value="" style="html=1;rounded=0;" parent="1" vertex="1">
          <mxGeometry x="-40" y="1429" width="20" height="20" as="geometry" />
        </mxCell>
        <mxCell id="aWz43SULXHOgwargIqAo-28" value="" style="html=1;rounded=0;" parent="1" vertex="1">
          <mxGeometry x="-345" y="1543" width="20" height="20" as="geometry" />
        </mxCell>
        <mxCell id="aWz43SULXHOgwargIqAo-29" value="" style="html=1;rounded=0;" parent="1" vertex="1">
          <mxGeometry x="-525" y="1543" width="20" height="20" as="geometry" />
        </mxCell>
        <mxCell id="aWz43SULXHOgwargIqAo-30" value="" style="html=1;rounded=0;" parent="1" vertex="1">
          <mxGeometry x="-790" y="1544" width="20" height="20" as="geometry" />
        </mxCell>
        <mxCell id="aWz43SULXHOgwargIqAo-31" value="" style="html=1;rounded=0;" parent="1" vertex="1">
          <mxGeometry x="-970" y="1544" width="20" height="20" as="geometry" />
        </mxCell>
        <mxCell id="aWz43SULXHOgwargIqAo-33" value="" style="rounded=0;orthogonalLoop=1;jettySize=auto;html=1;endArrow=oval;endFill=0;sketch=0;sourcePerimeterSpacing=0;targetPerimeterSpacing=0;endSize=10;exitX=1;exitY=0.5;exitDx=0;exitDy=0;" parent="1" source="aWz43SULXHOgwargIqAo-28" edge="1">
          <mxGeometry relative="1" as="geometry">
            <mxPoint x="-390" y="1364" as="sourcePoint" />
            <mxPoint x="-220" y="1439" as="targetPoint" />
            <Array as="points">
              <mxPoint x="-220" y="1554" />
            </Array>
          </mxGeometry>
        </mxCell>
        <mxCell id="aWz43SULXHOgwargIqAo-36" value="" style="html=1;verticalAlign=bottom;labelBackgroundColor=none;endArrow=open;endFill=0;dashed=1;rounded=0;" parent="1" edge="1">
          <mxGeometry width="160" relative="1" as="geometry">
            <mxPoint x="-1060" y="1549" as="sourcePoint" />
            <mxPoint x="-1120" y="1449" as="targetPoint" />
            <Array as="points">
              <mxPoint x="-1120" y="1549" />
              <mxPoint x="-1120" y="1489" />
            </Array>
          </mxGeometry>
        </mxCell>
        <mxCell id="aWz43SULXHOgwargIqAo-37" value="" style="ellipse;whiteSpace=wrap;html=1;align=center;aspect=fixed;fillColor=none;strokeColor=none;resizable=0;perimeter=centerPerimeter;rotatable=0;allowArrows=0;points=[];outlineConnect=1;" parent="1" vertex="1">
          <mxGeometry x="200" y="1649" width="10" height="10" as="geometry" />
        </mxCell>
        <mxCell id="aWz43SULXHOgwargIqAo-38" value="«component»&lt;br&gt;&lt;b&gt;Page payment&lt;/b&gt;" style="html=1;dropTarget=0;whiteSpace=wrap;" parent="1" vertex="1">
          <mxGeometry x="1300" y="1149" width="180" height="90" as="geometry" />
        </mxCell>
        <mxCell id="aWz43SULXHOgwargIqAo-39" value="" style="shape=module;jettyWidth=8;jettyHeight=4;" parent="aWz43SULXHOgwargIqAo-38" vertex="1">
          <mxGeometry x="1" width="20" height="20" relative="1" as="geometry">
            <mxPoint x="-27" y="7" as="offset" />
          </mxGeometry>
        </mxCell>
        <mxCell id="aWz43SULXHOgwargIqAo-40" value="" style="rounded=0;orthogonalLoop=1;jettySize=auto;html=1;endArrow=halfCircle;endFill=0;endSize=6;strokeWidth=1;sketch=0;exitX=0;exitY=0.5;exitDx=0;exitDy=0;" parent="1" source="aWz43SULXHOgwargIqAo-41" edge="1">
          <mxGeometry relative="1" as="geometry">
            <mxPoint x="-140" y="1449" as="sourcePoint" />
            <mxPoint x="1050" y="1189" as="targetPoint" />
          </mxGeometry>
        </mxCell>
        <mxCell id="aWz43SULXHOgwargIqAo-41" value="" style="html=1;rounded=0;" parent="1" vertex="1">
          <mxGeometry x="1290" y="1179" width="20" height="20" as="geometry" />
        </mxCell>
        <mxCell id="aWz43SULXHOgwargIqAo-42" value="«component»&lt;br&gt;&lt;b&gt;Printing Service&lt;/b&gt;" style="html=1;dropTarget=0;whiteSpace=wrap;" parent="1" vertex="1">
          <mxGeometry x="1300" y="1404" width="180" height="90" as="geometry" />
        </mxCell>
        <mxCell id="aWz43SULXHOgwargIqAo-43" value="" style="shape=module;jettyWidth=8;jettyHeight=4;" parent="aWz43SULXHOgwargIqAo-42" vertex="1">
          <mxGeometry x="1" width="20" height="20" relative="1" as="geometry">
            <mxPoint x="-27" y="7" as="offset" />
          </mxGeometry>
        </mxCell>
        <mxCell id="aWz43SULXHOgwargIqAo-44" value="" style="rounded=0;orthogonalLoop=1;jettySize=auto;html=1;endArrow=halfCircle;endFill=0;endSize=6;strokeWidth=1;sketch=0;exitX=0;exitY=0.5;exitDx=0;exitDy=0;" parent="1" source="aWz43SULXHOgwargIqAo-42" edge="1">
          <mxGeometry relative="1" as="geometry">
            <mxPoint x="560" y="1474" as="sourcePoint" />
            <mxPoint x="1020" y="1450" as="targetPoint" />
          </mxGeometry>
        </mxCell>
        <mxCell id="aWz43SULXHOgwargIqAo-45" value="" style="rounded=0;orthogonalLoop=1;jettySize=auto;html=1;endArrow=oval;endFill=0;sketch=0;sourcePerimeterSpacing=0;targetPerimeterSpacing=0;endSize=10;exitX=1;exitY=0.5;exitDx=0;exitDy=0;" parent="1" source="aWz43SULXHOgwargIqAo-58" edge="1">
          <mxGeometry relative="1" as="geometry">
            <mxPoint x="520" y="1474" as="sourcePoint" />
            <mxPoint x="1020" y="1449" as="targetPoint" />
          </mxGeometry>
        </mxCell>
        <mxCell id="aWz43SULXHOgwargIqAo-46" value="" style="ellipse;whiteSpace=wrap;html=1;align=center;aspect=fixed;fillColor=none;strokeColor=none;resizable=0;perimeter=centerPerimeter;rotatable=0;allowArrows=0;points=[];outlineConnect=1;" parent="1" vertex="1">
          <mxGeometry x="535" y="1469" width="10" height="10" as="geometry" />
        </mxCell>
        <mxCell id="aWz43SULXHOgwargIqAo-47" value="" style="html=1;verticalAlign=bottom;labelBackgroundColor=none;endArrow=open;endFill=0;dashed=1;rounded=0;" parent="1" edge="1">
          <mxGeometry width="160" relative="1" as="geometry">
            <mxPoint x="1050" y="1189" as="sourcePoint" />
            <mxPoint x="-1120" y="1419" as="targetPoint" />
            <Array as="points">
              <mxPoint x="-1120" y="1189" />
            </Array>
          </mxGeometry>
        </mxCell>
        <mxCell id="aWz43SULXHOgwargIqAo-48" value="" style="html=1;verticalAlign=bottom;labelBackgroundColor=none;endArrow=open;endFill=0;dashed=1;rounded=0;" parent="1" edge="1">
          <mxGeometry width="160" relative="1" as="geometry">
            <mxPoint x="1050" y="1189" as="sourcePoint" />
            <mxPoint x="1020" y="1439" as="targetPoint" />
            <Array as="points">
              <mxPoint x="1020" y="1189" />
            </Array>
          </mxGeometry>
        </mxCell>
        <mxCell id="aWz43SULXHOgwargIqAo-49" value="«component»&lt;br&gt;&lt;b&gt;Remaining page checking&lt;/b&gt;" style="html=1;dropTarget=0;whiteSpace=wrap;" parent="1" vertex="1">
          <mxGeometry x="485" y="1395" width="180" height="90" as="geometry" />
        </mxCell>
        <mxCell id="aWz43SULXHOgwargIqAo-50" value="" style="shape=module;jettyWidth=8;jettyHeight=4;" parent="aWz43SULXHOgwargIqAo-49" vertex="1">
          <mxGeometry x="1" width="20" height="20" relative="1" as="geometry">
            <mxPoint x="-27" y="7" as="offset" />
          </mxGeometry>
        </mxCell>
        <mxCell id="aWz43SULXHOgwargIqAo-51" value="«component»&lt;br&gt;&lt;b&gt;Student remaining page checking&lt;/b&gt;" style="html=1;dropTarget=0;whiteSpace=wrap;" parent="1" vertex="1">
          <mxGeometry x="305" y="1605" width="180" height="90" as="geometry" />
        </mxCell>
        <mxCell id="aWz43SULXHOgwargIqAo-52" value="" style="shape=module;jettyWidth=8;jettyHeight=4;" parent="aWz43SULXHOgwargIqAo-51" vertex="1">
          <mxGeometry x="1" width="20" height="20" relative="1" as="geometry">
            <mxPoint x="-27" y="7" as="offset" />
          </mxGeometry>
        </mxCell>
        <mxCell id="aWz43SULXHOgwargIqAo-53" value="«component»&lt;br&gt;&lt;b&gt;Printer remaining page checking&lt;/b&gt;" style="html=1;dropTarget=0;whiteSpace=wrap;" parent="1" vertex="1">
          <mxGeometry x="665" y="1598" width="180" height="90" as="geometry" />
        </mxCell>
        <mxCell id="aWz43SULXHOgwargIqAo-54" value="" style="shape=module;jettyWidth=8;jettyHeight=4;" parent="aWz43SULXHOgwargIqAo-53" vertex="1">
          <mxGeometry x="1" width="20" height="20" relative="1" as="geometry">
            <mxPoint x="-27" y="7" as="offset" />
          </mxGeometry>
        </mxCell>
        <mxCell id="aWz43SULXHOgwargIqAo-55" value="" style="rounded=0;orthogonalLoop=1;jettySize=auto;html=1;endArrow=halfCircle;endFill=0;endSize=6;strokeWidth=1;sketch=0;exitX=0.5;exitY=1;exitDx=0;exitDy=0;" parent="1" source="aWz43SULXHOgwargIqAo-49" edge="1">
          <mxGeometry relative="1" as="geometry">
            <mxPoint x="575" y="1585" as="sourcePoint" />
            <mxPoint x="575" y="1595" as="targetPoint" />
          </mxGeometry>
        </mxCell>
        <mxCell id="aWz43SULXHOgwargIqAo-56" value="" style="rounded=0;orthogonalLoop=1;jettySize=auto;html=1;endArrow=oval;endFill=0;sketch=0;sourcePerimeterSpacing=0;targetPerimeterSpacing=0;endSize=10;exitX=1;exitY=0.5;exitDx=0;exitDy=0;" parent="1" source="aWz43SULXHOgwargIqAo-51" edge="1">
          <mxGeometry relative="1" as="geometry">
            <mxPoint x="555" y="1250" as="sourcePoint" />
            <mxPoint x="575" y="1595" as="targetPoint" />
          </mxGeometry>
        </mxCell>
        <mxCell id="aWz43SULXHOgwargIqAo-57" value="" style="rounded=0;orthogonalLoop=1;jettySize=auto;html=1;endArrow=oval;endFill=0;sketch=0;sourcePerimeterSpacing=0;targetPerimeterSpacing=0;endSize=10;exitX=0;exitY=0.5;exitDx=0;exitDy=0;" parent="1" source="aWz43SULXHOgwargIqAo-53" edge="1">
          <mxGeometry relative="1" as="geometry">
            <mxPoint x="495" y="1660" as="sourcePoint" />
            <mxPoint x="575" y="1595" as="targetPoint" />
          </mxGeometry>
        </mxCell>
        <mxCell id="aWz43SULXHOgwargIqAo-58" value="" style="html=1;rounded=0;" parent="1" vertex="1">
          <mxGeometry x="660" y="1439" width="20" height="20" as="geometry" />
        </mxCell>
        <mxCell id="aWz43SULXHOgwargIqAo-59" value="" style="html=1;rounded=0;" parent="1" vertex="1">
          <mxGeometry x="475" y="1439" width="20" height="20" as="geometry" />
        </mxCell>
        <mxCell id="aWz43SULXHOgwargIqAo-61" value="" style="rounded=0;orthogonalLoop=1;jettySize=auto;html=1;endArrow=oval;endFill=0;sketch=0;sourcePerimeterSpacing=0;targetPerimeterSpacing=0;endSize=10;exitX=1;exitY=0.5;exitDx=0;exitDy=0;" parent="1" source="aWz43SULXHOgwargIqAo-26" edge="1">
          <mxGeometry relative="1" as="geometry">
            <mxPoint x="210" y="1395" as="sourcePoint" />
            <mxPoint x="1020" y="1450" as="targetPoint" />
            <Array as="points">
              <mxPoint x="190" y="1250" />
              <mxPoint x="550" y="1250" />
              <mxPoint x="910" y="1250" />
            </Array>
          </mxGeometry>
        </mxCell>
        <mxCell id="aWz43SULXHOgwargIqAo-62" value="" style="ellipse;whiteSpace=wrap;html=1;align=center;aspect=fixed;fillColor=none;strokeColor=none;resizable=0;perimeter=centerPerimeter;rotatable=0;allowArrows=0;points=[];outlineConnect=1;" parent="1" vertex="1">
          <mxGeometry x="225" y="1390" width="10" height="10" as="geometry" />
        </mxCell>
        <mxCell id="TUaaf9YP_ER2doJHWSKb-1" value="«component»&lt;br&gt;&lt;b&gt;User Authorization&lt;/b&gt;" style="html=1;dropTarget=0;whiteSpace=wrap;" vertex="1" parent="1">
          <mxGeometry x="-1410" y="1389" width="180" height="90" as="geometry" />
        </mxCell>
        <mxCell id="TUaaf9YP_ER2doJHWSKb-2" value="" style="shape=module;jettyWidth=8;jettyHeight=4;" vertex="1" parent="TUaaf9YP_ER2doJHWSKb-1">
          <mxGeometry x="1" width="20" height="20" relative="1" as="geometry">
            <mxPoint x="-27" y="7" as="offset" />
          </mxGeometry>
        </mxCell>
        <mxCell id="aWz43SULXHOgwargIqAo-32" value="" style="html=1;rounded=0;" parent="1" vertex="1">
          <mxGeometry x="-1240" y="1424" width="20" height="20" as="geometry" />
        </mxCell>
        <mxCell id="TUaaf9YP_ER2doJHWSKb-8" value="" style="rounded=0;orthogonalLoop=1;jettySize=auto;html=1;endArrow=halfCircle;endFill=0;endSize=6;strokeWidth=1;sketch=0;exitX=0;exitY=0.5;exitDx=0;exitDy=0;" edge="1" parent="1" source="TUaaf9YP_ER2doJHWSKb-10">
          <mxGeometry relative="1" as="geometry">
            <mxPoint x="-1490" y="1354" as="sourcePoint" />
            <mxPoint x="-1490" y="1439" as="targetPoint" />
          </mxGeometry>
        </mxCell>
        <mxCell id="TUaaf9YP_ER2doJHWSKb-9" value="" style="rounded=0;orthogonalLoop=1;jettySize=auto;html=1;endArrow=oval;endFill=0;sketch=0;sourcePerimeterSpacing=0;targetPerimeterSpacing=0;endSize=10;exitX=1;exitY=0.5;exitDx=0;exitDy=0;" edge="1" parent="1" source="TUaaf9YP_ER2doJHWSKb-11">
          <mxGeometry relative="1" as="geometry">
            <mxPoint x="-1780" y="1189" as="sourcePoint" />
            <mxPoint x="-1490" y="1439" as="targetPoint" />
          </mxGeometry>
        </mxCell>
        <mxCell id="TUaaf9YP_ER2doJHWSKb-10" value="" style="html=1;rounded=0;" vertex="1" parent="1">
          <mxGeometry x="-1420" y="1429" width="20" height="20" as="geometry" />
        </mxCell>
        <mxCell id="TUaaf9YP_ER2doJHWSKb-11" value="" style="html=1;rounded=0;" vertex="1" parent="1">
          <mxGeometry x="-1610" y="1429" width="20" height="20" as="geometry" />
        </mxCell>
        <mxCell id="TUaaf9YP_ER2doJHWSKb-12" value="required user infomation" style="text;html=1;align=center;verticalAlign=middle;whiteSpace=wrap;rounded=0;" vertex="1" parent="1">
          <mxGeometry x="-1590" y="1404" width="180" height="30" as="geometry" />
        </mxCell>
        <mxCell id="TUaaf9YP_ER2doJHWSKb-13" value="required user infomation &amp;amp; role" style="text;html=1;align=center;verticalAlign=middle;whiteSpace=wrap;rounded=0;" vertex="1" parent="1">
          <mxGeometry x="-1160" y="1564" width="180" height="30" as="geometry" />
        </mxCell>
        <mxCell id="TUaaf9YP_ER2doJHWSKb-14" value="required booking option &amp;amp; infomation" style="text;html=1;align=center;verticalAlign=middle;whiteSpace=wrap;rounded=0;" vertex="1" parent="1">
          <mxGeometry x="-740" y="1569" width="180" height="30" as="geometry" />
        </mxCell>
        <mxCell id="TUaaf9YP_ER2doJHWSKb-16" value="require validation result" style="text;html=1;align=center;verticalAlign=middle;whiteSpace=wrap;rounded=0;" vertex="1" parent="1">
          <mxGeometry x="-230" y="1409" width="180" height="30" as="geometry" />
        </mxCell>
        <mxCell id="TUaaf9YP_ER2doJHWSKb-17" value="require printer infomation" style="text;html=1;align=center;verticalAlign=middle;whiteSpace=wrap;rounded=0;" vertex="1" parent="1">
          <mxGeometry x="-230" y="1444" width="180" height="30" as="geometry" />
        </mxCell>
        <mxCell id="TUaaf9YP_ER2doJHWSKb-18" value="«component»&lt;br&gt;&lt;b&gt;File Uploading &amp;amp; Saving&lt;/b&gt;" style="html=1;dropTarget=0;whiteSpace=wrap;" vertex="1" parent="1">
          <mxGeometry x="-960" y="1310" width="180" height="90" as="geometry" />
        </mxCell>
        <mxCell id="TUaaf9YP_ER2doJHWSKb-19" value="" style="shape=module;jettyWidth=8;jettyHeight=4;" vertex="1" parent="TUaaf9YP_ER2doJHWSKb-18">
          <mxGeometry x="1" width="20" height="20" relative="1" as="geometry">
            <mxPoint x="-27" y="7" as="offset" />
          </mxGeometry>
        </mxCell>
        <mxCell id="TUaaf9YP_ER2doJHWSKb-20" value="" style="html=1;rounded=0;" vertex="1" parent="1">
          <mxGeometry x="-790" y="1350" width="20" height="20" as="geometry" />
        </mxCell>
        <mxCell id="TUaaf9YP_ER2doJHWSKb-22" value="" style="html=1;rounded=0;" vertex="1" parent="1">
          <mxGeometry x="-525" y="1350" width="20" height="20" as="geometry" />
        </mxCell>
        <mxCell id="TUaaf9YP_ER2doJHWSKb-25" value="" style="rounded=0;orthogonalLoop=1;jettySize=auto;html=1;endArrow=halfCircle;endFill=0;endSize=6;strokeWidth=1;sketch=0;exitX=0;exitY=0.5;exitDx=0;exitDy=0;" edge="1" parent="1">
          <mxGeometry relative="1" as="geometry">
            <mxPoint x="-525" y="1358" as="sourcePoint" />
            <mxPoint x="-650" y="1359" as="targetPoint" />
          </mxGeometry>
        </mxCell>
        <mxCell id="TUaaf9YP_ER2doJHWSKb-26" value="" style="rounded=0;orthogonalLoop=1;jettySize=auto;html=1;endArrow=oval;endFill=0;sketch=0;sourcePerimeterSpacing=0;targetPerimeterSpacing=0;endSize=10;exitX=1;exitY=0.5;exitDx=0;exitDy=0;" edge="1" parent="1">
          <mxGeometry relative="1" as="geometry">
            <mxPoint x="-770" y="1359" as="sourcePoint" />
            <mxPoint x="-650" y="1359" as="targetPoint" />
          </mxGeometry>
        </mxCell>
        <mxCell id="TUaaf9YP_ER2doJHWSKb-27" value="required file format" style="text;html=1;align=center;verticalAlign=middle;whiteSpace=wrap;rounded=0;" vertex="1" parent="1">
          <mxGeometry x="-740" y="1374" width="180" height="30" as="geometry" />
        </mxCell>
        <mxCell id="TUaaf9YP_ER2doJHWSKb-28" value="" style="rounded=0;orthogonalLoop=1;jettySize=auto;html=1;endArrow=halfCircle;endFill=0;endSize=6;strokeWidth=1;sketch=0;exitX=0;exitY=0.75;exitDx=0;exitDy=0;" edge="1" parent="1" source="TUaaf9YP_ER2doJHWSKb-22">
          <mxGeometry relative="1" as="geometry">
            <mxPoint x="-250" y="990" as="sourcePoint" />
            <mxPoint x="-410" y="1470" as="targetPoint" />
            <Array as="points">
              <mxPoint x="-525" y="1470" />
            </Array>
          </mxGeometry>
        </mxCell>
        <mxCell id="TUaaf9YP_ER2doJHWSKb-29" value="" style="rounded=0;orthogonalLoop=1;jettySize=auto;html=1;endArrow=oval;endFill=0;sketch=0;sourcePerimeterSpacing=0;targetPerimeterSpacing=0;endSize=10;exitX=1;exitY=0.5;exitDx=0;exitDy=0;" edge="1" parent="1" source="aWz43SULXHOgwargIqAo-28">
          <mxGeometry relative="1" as="geometry">
            <mxPoint x="-495" y="991" as="sourcePoint" />
            <mxPoint x="-410" y="1470" as="targetPoint" />
            <Array as="points">
              <mxPoint x="-325" y="1470" />
            </Array>
          </mxGeometry>
        </mxCell>
        <mxCell id="TUaaf9YP_ER2doJHWSKb-33" value="require printer infomation" style="text;html=1;align=center;verticalAlign=middle;whiteSpace=wrap;rounded=0;" vertex="1" parent="1">
          <mxGeometry x="-510" y="1434" width="180" height="30" as="geometry" />
        </mxCell>
        <mxCell id="TUaaf9YP_ER2doJHWSKb-34" style="edgeStyle=orthogonalEdgeStyle;rounded=0;orthogonalLoop=1;jettySize=auto;html=1;exitX=0.5;exitY=1;exitDx=0;exitDy=0;" edge="1" parent="1">
          <mxGeometry relative="1" as="geometry">
            <mxPoint x="-375" y="1036" as="sourcePoint" />
            <mxPoint x="-375" y="1036" as="targetPoint" />
          </mxGeometry>
        </mxCell>
        <mxCell id="TUaaf9YP_ER2doJHWSKb-35" value="required user infomation&amp;nbsp;" style="text;html=1;align=center;verticalAlign=middle;whiteSpace=wrap;rounded=0;" vertex="1" parent="1">
          <mxGeometry x="940" y="1149" width="180" height="30" as="geometry" />
        </mxCell>
        <mxCell id="TUaaf9YP_ER2doJHWSKb-36" value="require page check result &amp;amp; printing configuration" style="text;html=1;align=center;verticalAlign=middle;whiteSpace=wrap;rounded=0;" vertex="1" parent="1">
          <mxGeometry x="970" y="1464" width="180" height="30" as="geometry" />
        </mxCell>
        <mxCell id="TUaaf9YP_ER2doJHWSKb-37" value="" style="html=1;rounded=0;" vertex="1" parent="1">
          <mxGeometry x="1290" y="1439" width="20" height="20" as="geometry" />
        </mxCell>
      </root>
    </mxGraphModel>
  </diagram>
  <diagram name="System" id="fa6bFa7pBxwzI0gAeTpU">
    <mxGraphModel dx="1343" dy="1941" grid="1" gridSize="10" guides="1" tooltips="1" connect="1" arrows="1" fold="1" page="1" pageScale="1" pageWidth="850" pageHeight="1100" math="0" shadow="0">
      <root>
        <mxCell id="0" />
        <mxCell id="1" parent="0" />
        <mxCell id="G-Txi9DhMvLnC2dPij01-25" value="" style="rounded=1;whiteSpace=wrap;html=1;absoluteArcSize=1;arcSize=14;strokeWidth=2;fillColor=#dae8fc;strokeColor=#6c8ebf;labelBackgroundColor=#dae8fc;" parent="1" vertex="1">
          <mxGeometry x="100" y="-130" width="690" height="1020" as="geometry" />
        </mxCell>
        <mxCell id="G-Txi9DhMvLnC2dPij01-26" value="&lt;b&gt;&lt;font style=&quot;font-size: 15px;&quot;&gt;SSPS&lt;/font&gt;&lt;/b&gt;" style="text;html=1;align=center;verticalAlign=middle;resizable=0;points=[];autosize=1;strokeColor=none;fillColor=none;" parent="1" vertex="1">
          <mxGeometry x="530" y="-80" width="60" height="30" as="geometry" />
        </mxCell>
        <mxCell id="G-Txi9DhMvLnC2dPij01-27" style="rounded=0;orthogonalLoop=1;jettySize=auto;html=1;exitX=0.5;exitY=0.5;exitDx=0;exitDy=0;exitPerimeter=0;entryX=0;entryY=0.5;entryDx=0;entryDy=0;endArrow=none;endFill=0;" parent="1" source="G-Txi9DhMvLnC2dPij01-32" target="G-Txi9DhMvLnC2dPij01-33" edge="1">
          <mxGeometry relative="1" as="geometry" />
        </mxCell>
        <mxCell id="G-Txi9DhMvLnC2dPij01-28" style="shape=connector;rounded=0;orthogonalLoop=1;jettySize=auto;html=1;exitX=0.5;exitY=0.5;exitDx=0;exitDy=0;exitPerimeter=0;strokeColor=default;align=center;verticalAlign=middle;fontFamily=Helvetica;fontSize=11;fontColor=default;labelBackgroundColor=default;endArrow=none;endFill=0;" parent="1" source="G-Txi9DhMvLnC2dPij01-32" target="G-Txi9DhMvLnC2dPij01-34" edge="1">
          <mxGeometry relative="1" as="geometry" />
        </mxCell>
        <mxCell id="G-Txi9DhMvLnC2dPij01-29" style="shape=connector;rounded=0;orthogonalLoop=1;jettySize=auto;html=1;exitX=0.5;exitY=0.5;exitDx=0;exitDy=0;exitPerimeter=0;entryX=0;entryY=0.5;entryDx=0;entryDy=0;strokeColor=default;align=center;verticalAlign=middle;fontFamily=Helvetica;fontSize=11;fontColor=default;labelBackgroundColor=default;endArrow=none;endFill=0;" parent="1" source="G-Txi9DhMvLnC2dPij01-32" target="G-Txi9DhMvLnC2dPij01-39" edge="1">
          <mxGeometry relative="1" as="geometry" />
        </mxCell>
        <mxCell id="G-Txi9DhMvLnC2dPij01-30" style="shape=connector;rounded=0;orthogonalLoop=1;jettySize=auto;html=1;exitX=0.5;exitY=0.5;exitDx=0;exitDy=0;exitPerimeter=0;entryX=0;entryY=0.5;entryDx=0;entryDy=0;strokeColor=default;align=center;verticalAlign=middle;fontFamily=Helvetica;fontSize=11;fontColor=default;labelBackgroundColor=default;endArrow=none;endFill=0;" parent="1" source="G-Txi9DhMvLnC2dPij01-32" target="G-Txi9DhMvLnC2dPij01-40" edge="1">
          <mxGeometry relative="1" as="geometry" />
        </mxCell>
        <mxCell id="G-Txi9DhMvLnC2dPij01-31" style="rounded=0;orthogonalLoop=1;jettySize=auto;html=1;exitX=0.5;exitY=0.5;exitDx=0;exitDy=0;exitPerimeter=0;entryX=0;entryY=0.5;entryDx=0;entryDy=0;endArrow=none;endFill=0;" parent="1" source="G-Txi9DhMvLnC2dPij01-32" target="G-Txi9DhMvLnC2dPij01-47" edge="1">
          <mxGeometry relative="1" as="geometry" />
        </mxCell>
        <mxCell id="G-Txi9DhMvLnC2dPij01-32" value="Student" style="shape=umlActor;verticalLabelPosition=bottom;verticalAlign=top;html=1;outlineConnect=0;" parent="1" vertex="1">
          <mxGeometry x="90" y="450" width="30" height="60" as="geometry" />
        </mxCell>
        <mxCell id="G-Txi9DhMvLnC2dPij01-33" value="Login/ Logout" style="ellipse;whiteSpace=wrap;html=1;" parent="1" vertex="1">
          <mxGeometry x="260" y="390" width="120" height="80" as="geometry" />
        </mxCell>
        <mxCell id="G-Txi9DhMvLnC2dPij01-34" value="View printed history" style="ellipse;whiteSpace=wrap;html=1;" parent="1" vertex="1">
          <mxGeometry x="260" y="510" width="120" height="80" as="geometry" />
        </mxCell>
        <mxCell id="G-Txi9DhMvLnC2dPij01-37" style="rounded=0;orthogonalLoop=1;jettySize=auto;html=1;exitX=0.5;exitY=0.5;exitDx=0;exitDy=0;exitPerimeter=0;entryX=1;entryY=0.5;entryDx=0;entryDy=0;endArrow=none;endFill=0;" parent="1" source="G-Txi9DhMvLnC2dPij01-38" target="G-Txi9DhMvLnC2dPij01-48" edge="1">
          <mxGeometry relative="1" as="geometry" />
        </mxCell>
        <mxCell id="G-Txi9DhMvLnC2dPij01-38" value="Admin" style="shape=umlActor;verticalLabelPosition=bottom;verticalAlign=top;html=1;outlineConnect=0;" parent="1" vertex="1">
          <mxGeometry x="960" y="450" width="30" height="60" as="geometry" />
        </mxCell>
        <mxCell id="zq0Ago5jOj6D8bT06xtX-2" style="rounded=0;orthogonalLoop=1;jettySize=auto;html=1;dashed=1;dashPattern=8 8;endArrow=open;endFill=0;exitX=1;exitY=0.5;exitDx=0;exitDy=0;entryX=0;entryY=0.5;entryDx=0;entryDy=0;" parent="1" source="G-Txi9DhMvLnC2dPij01-39" target="zq0Ago5jOj6D8bT06xtX-1" edge="1">
          <mxGeometry relative="1" as="geometry" />
        </mxCell>
        <mxCell id="zq0Ago5jOj6D8bT06xtX-3" value="&amp;lt;&amp;lt;include&amp;gt;&amp;gt;" style="edgeLabel;html=1;align=center;verticalAlign=middle;resizable=0;points=[];labelBackgroundColor=#DAE8FC;" parent="zq0Ago5jOj6D8bT06xtX-2" connectable="0" vertex="1">
          <mxGeometry x="-0.2571" y="1" relative="1" as="geometry">
            <mxPoint x="6" y="1" as="offset" />
          </mxGeometry>
        </mxCell>
        <mxCell id="G-Txi9DhMvLnC2dPij01-39" value="Buy printing pages" style="ellipse;whiteSpace=wrap;html=1;fontFamily=Helvetica;fontSize=11;fontColor=default;labelBackgroundColor=default;" parent="1" vertex="1">
          <mxGeometry x="260" y="730" width="120" height="80" as="geometry" />
        </mxCell>
        <mxCell id="gZGITzXNYZw3eEMaBb-6-1" style="edgeStyle=orthogonalEdgeStyle;shape=connector;rounded=0;orthogonalLoop=1;jettySize=auto;html=1;exitX=0.5;exitY=0;exitDx=0;exitDy=0;dashed=1;dashPattern=8 8;strokeColor=default;align=center;verticalAlign=middle;fontFamily=Helvetica;fontSize=11;fontColor=default;labelBackgroundColor=default;endArrow=open;endFill=0;entryX=0.5;entryY=1;entryDx=0;entryDy=0;" parent="1" source="G-Txi9DhMvLnC2dPij01-40" target="8AIa1ISTZrw1wFt9NOvZ-1" edge="1">
          <mxGeometry relative="1" as="geometry" />
        </mxCell>
        <mxCell id="gZGITzXNYZw3eEMaBb-6-2" value="&amp;lt;&amp;lt;include&amp;gt;&amp;gt;" style="edgeLabel;html=1;align=center;verticalAlign=middle;resizable=0;points=[];fontFamily=Helvetica;fontSize=11;fontColor=default;labelBackgroundColor=#dae8fc;" parent="gZGITzXNYZw3eEMaBb-6-1" vertex="1" connectable="0">
          <mxGeometry x="0.0387" y="1" relative="1" as="geometry">
            <mxPoint as="offset" />
          </mxGeometry>
        </mxCell>
        <mxCell id="G-Txi9DhMvLnC2dPij01-40" value="Print document" style="ellipse;whiteSpace=wrap;html=1;fontFamily=Helvetica;fontSize=11;fontColor=default;labelBackgroundColor=default;" parent="1" vertex="1">
          <mxGeometry x="260" y="290" width="120" height="80" as="geometry" />
        </mxCell>
        <mxCell id="G-Txi9DhMvLnC2dPij01-41" style="shape=connector;rounded=0;orthogonalLoop=1;jettySize=auto;html=1;exitX=1;exitY=0.5;exitDx=0;exitDy=0;strokeColor=default;align=center;verticalAlign=middle;fontFamily=Helvetica;fontSize=11;fontColor=default;labelBackgroundColor=default;endArrow=none;endFill=0;entryX=0.5;entryY=0.5;entryDx=0;entryDy=0;entryPerimeter=0;" parent="1" source="G-Txi9DhMvLnC2dPij01-42" target="G-Txi9DhMvLnC2dPij01-38" edge="1">
          <mxGeometry relative="1" as="geometry">
            <mxPoint x="930" y="480" as="targetPoint" />
          </mxGeometry>
        </mxCell>
        <mxCell id="G-Txi9DhMvLnC2dPij01-42" value="Manage printers" style="ellipse;whiteSpace=wrap;html=1;fontFamily=Helvetica;fontSize=11;fontColor=default;labelBackgroundColor=default;" parent="1" vertex="1">
          <mxGeometry x="720" y="80" width="120" height="80" as="geometry" />
        </mxCell>
        <mxCell id="G-Txi9DhMvLnC2dPij01-43" style="shape=connector;rounded=0;orthogonalLoop=1;jettySize=auto;html=1;exitX=1;exitY=0.5;exitDx=0;exitDy=0;strokeColor=default;align=center;verticalAlign=middle;fontFamily=Helvetica;fontSize=11;fontColor=default;labelBackgroundColor=default;endArrow=none;endFill=0;entryX=0.5;entryY=0.5;entryDx=0;entryDy=0;entryPerimeter=0;" parent="1" source="G-Txi9DhMvLnC2dPij01-44" target="G-Txi9DhMvLnC2dPij01-38" edge="1">
          <mxGeometry relative="1" as="geometry">
            <mxPoint x="930" y="480" as="targetPoint" />
          </mxGeometry>
        </mxCell>
        <mxCell id="G-Txi9DhMvLnC2dPij01-44" value="Manage system&#39;s&lt;div&gt;configuration&lt;/div&gt;" style="ellipse;whiteSpace=wrap;html=1;fontFamily=Helvetica;fontSize=11;fontColor=default;labelBackgroundColor=default;" parent="1" vertex="1">
          <mxGeometry x="730" y="260" width="120" height="80" as="geometry" />
        </mxCell>
        <mxCell id="G-Txi9DhMvLnC2dPij01-45" style="shape=connector;rounded=0;orthogonalLoop=1;jettySize=auto;html=1;exitX=1;exitY=0.5;exitDx=0;exitDy=0;strokeColor=default;align=center;verticalAlign=middle;fontFamily=Helvetica;fontSize=11;fontColor=default;labelBackgroundColor=default;endArrow=none;endFill=0;entryX=0.5;entryY=0.5;entryDx=0;entryDy=0;entryPerimeter=0;" parent="1" source="G-Txi9DhMvLnC2dPij01-46" target="G-Txi9DhMvLnC2dPij01-38" edge="1">
          <mxGeometry relative="1" as="geometry">
            <mxPoint x="930" y="480" as="targetPoint" />
          </mxGeometry>
        </mxCell>
        <mxCell id="G-Txi9DhMvLnC2dPij01-46" value="View report" style="ellipse;whiteSpace=wrap;html=1;fontFamily=Helvetica;fontSize=11;fontColor=default;labelBackgroundColor=default;" parent="1" vertex="1">
          <mxGeometry x="730" y="610" width="120" height="80" as="geometry" />
        </mxCell>
        <mxCell id="G-Txi9DhMvLnC2dPij01-47" value="View list of printers" style="ellipse;whiteSpace=wrap;html=1;" parent="1" vertex="1">
          <mxGeometry x="260" y="620" width="120" height="80" as="geometry" />
        </mxCell>
        <mxCell id="G-Txi9DhMvLnC2dPij01-48" value="Manage users" style="ellipse;whiteSpace=wrap;html=1;" parent="1" vertex="1">
          <mxGeometry x="730" y="730" width="120" height="80" as="geometry" />
        </mxCell>
        <mxCell id="OSPKXAynKgcW1qoPL5bF-1" style="rounded=0;orthogonalLoop=1;jettySize=auto;html=1;exitX=1;exitY=0.5;exitDx=0;exitDy=0;entryX=0;entryY=0;entryDx=0;entryDy=0;endArrow=open;endFill=0;dashed=1;dashPattern=8 8;" parent="1" source="dC4TWtvTLt33OlIT0E-b-1" target="G-Txi9DhMvLnC2dPij01-42" edge="1">
          <mxGeometry relative="1" as="geometry" />
        </mxCell>
        <mxCell id="OSPKXAynKgcW1qoPL5bF-6" value="&amp;lt;&amp;lt;extend&amp;gt;&amp;gt;" style="edgeLabel;html=1;align=center;verticalAlign=middle;resizable=0;points=[];fontFamily=Helvetica;fontSize=11;fontColor=default;labelBackgroundColor=#DAE8FC;" parent="OSPKXAynKgcW1qoPL5bF-1" vertex="1" connectable="0">
          <mxGeometry x="-0.3668" y="1" relative="1" as="geometry">
            <mxPoint as="offset" />
          </mxGeometry>
        </mxCell>
        <mxCell id="dC4TWtvTLt33OlIT0E-b-1" value="Add printer" style="ellipse;whiteSpace=wrap;html=1;" parent="1" vertex="1">
          <mxGeometry x="500" y="-30" width="120" height="80" as="geometry" />
        </mxCell>
        <mxCell id="zq0Ago5jOj6D8bT06xtX-1" value="Make payment" style="ellipse;whiteSpace=wrap;html=1;" parent="1" vertex="1">
          <mxGeometry x="485" y="730" width="120" height="80" as="geometry" />
        </mxCell>
        <mxCell id="OSPKXAynKgcW1qoPL5bF-2" style="edgeStyle=orthogonalEdgeStyle;shape=connector;rounded=0;orthogonalLoop=1;jettySize=auto;html=1;exitX=1;exitY=0.5;exitDx=0;exitDy=0;entryX=0;entryY=0.5;entryDx=0;entryDy=0;dashed=1;strokeColor=default;align=center;verticalAlign=middle;fontFamily=Helvetica;fontSize=11;fontColor=default;labelBackgroundColor=default;endArrow=open;endFill=0;dashPattern=8 8;" parent="1" source="z-S-54UgZEsN4MJB6k67-1" target="G-Txi9DhMvLnC2dPij01-42" edge="1">
          <mxGeometry relative="1" as="geometry" />
        </mxCell>
        <mxCell id="bGK3Khzxm9rbHlBw_siQ-1" value="&amp;lt;&amp;lt;extend&amp;gt;&amp;gt;" style="edgeLabel;align=center;verticalAlign=middle;resizable=0;points=[];fontFamily=Helvetica;fontSize=11;fontColor=default;labelBackgroundColor=#DAE8FC;html=1;horizontal=1;" parent="OSPKXAynKgcW1qoPL5bF-2" vertex="1" connectable="0">
          <mxGeometry x="-0.0778" relative="1" as="geometry">
            <mxPoint as="offset" />
          </mxGeometry>
        </mxCell>
        <mxCell id="z-S-54UgZEsN4MJB6k67-1" value="Enable printer" style="ellipse;whiteSpace=wrap;html=1;" parent="1" vertex="1">
          <mxGeometry x="500" y="80" width="120" height="80" as="geometry" />
        </mxCell>
        <mxCell id="OSPKXAynKgcW1qoPL5bF-3" style="shape=connector;rounded=0;orthogonalLoop=1;jettySize=auto;html=1;exitX=1;exitY=0.5;exitDx=0;exitDy=0;entryX=0;entryY=1;entryDx=0;entryDy=0;dashed=1;strokeColor=default;align=center;verticalAlign=middle;fontFamily=Helvetica;fontSize=11;fontColor=default;labelBackgroundColor=default;endArrow=open;endFill=0;dashPattern=8 8;" parent="1" source="z-S-54UgZEsN4MJB6k67-2" target="G-Txi9DhMvLnC2dPij01-42" edge="1">
          <mxGeometry relative="1" as="geometry" />
        </mxCell>
        <mxCell id="zq0Ago5jOj6D8bT06xtX-5" value="&amp;lt;&amp;lt;extend&amp;gt;&amp;gt;" style="edgeLabel;html=1;align=center;verticalAlign=middle;resizable=0;points=[];labelBackgroundColor=#DAE8FC;" parent="OSPKXAynKgcW1qoPL5bF-3" connectable="0" vertex="1">
          <mxGeometry x="0.1481" y="-1" relative="1" as="geometry">
            <mxPoint x="-8" y="2" as="offset" />
          </mxGeometry>
        </mxCell>
        <mxCell id="z-S-54UgZEsN4MJB6k67-2" value="Disable printer" style="ellipse;whiteSpace=wrap;html=1;" parent="1" vertex="1">
          <mxGeometry x="500" y="180" width="120" height="80" as="geometry" />
        </mxCell>
        <mxCell id="gZGITzXNYZw3eEMaBb-6-4" style="shape=connector;rounded=0;orthogonalLoop=1;jettySize=auto;html=1;exitX=0.5;exitY=1;exitDx=0;exitDy=0;dashed=1;dashPattern=8 8;strokeColor=default;align=center;verticalAlign=middle;fontFamily=Helvetica;fontSize=11;fontColor=default;labelBackgroundColor=default;endArrow=open;endFill=0;entryX=1;entryY=0;entryDx=0;entryDy=0;" parent="1" source="-xV2vhgaHu-cIauC6HBJ-2" target="8AIa1ISTZrw1wFt9NOvZ-1" edge="1">
          <mxGeometry relative="1" as="geometry" />
        </mxCell>
        <mxCell id="gZGITzXNYZw3eEMaBb-6-5" value="&amp;lt;&amp;lt;extend&amp;gt;&amp;gt;" style="edgeLabel;html=1;align=center;verticalAlign=middle;resizable=0;points=[];fontFamily=Helvetica;fontSize=11;fontColor=default;labelBackgroundColor=#DAE8FC;" parent="gZGITzXNYZw3eEMaBb-6-4" vertex="1" connectable="0">
          <mxGeometry x="0.0228" y="-1" relative="1" as="geometry">
            <mxPoint as="offset" />
          </mxGeometry>
        </mxCell>
        <mxCell id="8AIa1ISTZrw1wFt9NOvZ-1" value="Choose printer" style="ellipse;whiteSpace=wrap;html=1;fontFamily=Helvetica;fontSize=11;fontColor=default;labelBackgroundColor=default;" parent="1" vertex="1">
          <mxGeometry x="260" y="110" width="120" height="80" as="geometry" />
        </mxCell>
        <mxCell id="gZGITzXNYZw3eEMaBb-6-3" style="shape=connector;rounded=0;orthogonalLoop=1;jettySize=auto;html=1;exitX=0.5;exitY=1;exitDx=0;exitDy=0;entryX=0;entryY=0;entryDx=0;entryDy=0;dashed=1;dashPattern=8 8;strokeColor=default;align=center;verticalAlign=middle;fontFamily=Helvetica;fontSize=11;fontColor=default;labelBackgroundColor=default;endArrow=open;endFill=0;" parent="1" source="-xV2vhgaHu-cIauC6HBJ-1" target="8AIa1ISTZrw1wFt9NOvZ-1" edge="1">
          <mxGeometry relative="1" as="geometry" />
        </mxCell>
        <mxCell id="gZGITzXNYZw3eEMaBb-6-6" value="&amp;lt;&amp;lt;include&amp;gt;&amp;gt;" style="edgeLabel;html=1;align=center;verticalAlign=middle;resizable=0;points=[];fontFamily=Helvetica;fontSize=11;fontColor=default;labelBackgroundColor=#DAE8FC;" parent="gZGITzXNYZw3eEMaBb-6-3" vertex="1" connectable="0">
          <mxGeometry x="-0.224" y="1" relative="1" as="geometry">
            <mxPoint as="offset" />
          </mxGeometry>
        </mxCell>
        <mxCell id="-xV2vhgaHu-cIauC6HBJ-1" value="Upload file" style="ellipse;whiteSpace=wrap;html=1;fontFamily=Helvetica;fontSize=11;fontColor=default;labelBackgroundColor=default;" parent="1" vertex="1">
          <mxGeometry x="210" y="-30" width="120" height="80" as="geometry" />
        </mxCell>
        <mxCell id="-xV2vhgaHu-cIauC6HBJ-2" value="Set print options" style="ellipse;whiteSpace=wrap;html=1;fontFamily=Helvetica;fontSize=11;fontColor=default;labelBackgroundColor=default;" parent="1" vertex="1">
          <mxGeometry x="340" y="-30" width="120" height="80" as="geometry" />
        </mxCell>
        <mxCell id="sqQhixktl9msOKhNQ13j-4" style="rounded=0;orthogonalLoop=1;jettySize=auto;html=1;exitX=1;exitY=1;exitDx=0;exitDy=0;entryX=0;entryY=0;entryDx=0;entryDy=0;dashed=1;dashPattern=8 8;endArrow=open;endFill=0;" parent="1" source="gZGITzXNYZw3eEMaBb-6-7" target="G-Txi9DhMvLnC2dPij01-48" edge="1">
          <mxGeometry relative="1" as="geometry" />
        </mxCell>
        <mxCell id="sqQhixktl9msOKhNQ13j-5" value="&amp;lt;&amp;lt;extend&amp;gt;&amp;gt;" style="edgeLabel;html=1;align=center;verticalAlign=middle;resizable=0;points=[];labelBackgroundColor=#DAE8FC;" parent="sqQhixktl9msOKhNQ13j-4" connectable="0" vertex="1">
          <mxGeometry x="-0.085" y="-2" relative="1" as="geometry">
            <mxPoint as="offset" />
          </mxGeometry>
        </mxCell>
        <mxCell id="gZGITzXNYZw3eEMaBb-6-7" value="Temporarily ban" style="ellipse;whiteSpace=wrap;html=1;fontFamily=Helvetica;fontSize=11;fontColor=default;labelBackgroundColor=default;" parent="1" vertex="1">
          <mxGeometry x="580" y="630" width="120" height="80" as="geometry" />
        </mxCell>
        <mxCell id="gZGITzXNYZw3eEMaBb-6-12" style="shape=connector;rounded=0;orthogonalLoop=1;jettySize=auto;html=1;exitX=1;exitY=0;exitDx=0;exitDy=0;entryX=0;entryY=1;entryDx=0;entryDy=0;dashed=1;dashPattern=8 8;strokeColor=default;align=center;verticalAlign=middle;fontFamily=Helvetica;fontSize=11;fontColor=default;labelBackgroundColor=default;endArrow=open;endFill=0;" parent="1" source="gZGITzXNYZw3eEMaBb-6-8" target="G-Txi9DhMvLnC2dPij01-48" edge="1">
          <mxGeometry relative="1" as="geometry" />
        </mxCell>
        <mxCell id="gZGITzXNYZw3eEMaBb-6-13" value="&amp;lt;&amp;lt;extend&amp;gt;&amp;gt;" style="edgeLabel;html=1;align=center;verticalAlign=middle;resizable=0;points=[];fontFamily=Helvetica;fontSize=11;fontColor=default;labelBackgroundColor=#DAE8FC;" parent="gZGITzXNYZw3eEMaBb-6-12" vertex="1" connectable="0">
          <mxGeometry x="-0.1371" relative="1" as="geometry">
            <mxPoint as="offset" />
          </mxGeometry>
        </mxCell>
        <mxCell id="gZGITzXNYZw3eEMaBb-6-8" value="Permanently ban" style="ellipse;whiteSpace=wrap;html=1;fontFamily=Helvetica;fontSize=11;fontColor=default;labelBackgroundColor=default;" parent="1" vertex="1">
          <mxGeometry x="580" y="820" width="120" height="80" as="geometry" />
        </mxCell>
        <mxCell id="eWomvBEqdYfxholk4F3O-2" style="shape=connector;rounded=0;orthogonalLoop=1;jettySize=auto;html=1;exitX=0;exitY=0.5;exitDx=0;exitDy=0;entryX=1;entryY=0.5;entryDx=0;entryDy=0;dashed=1;dashPattern=8 8;strokeColor=default;align=center;verticalAlign=middle;fontFamily=Helvetica;fontSize=11;fontColor=default;labelBackgroundColor=default;endArrow=open;endFill=0;" parent="1" source="eWomvBEqdYfxholk4F3O-1" target="G-Txi9DhMvLnC2dPij01-40" edge="1">
          <mxGeometry relative="1" as="geometry" />
        </mxCell>
        <mxCell id="AzcgpeG9JRbDW8tLth-U-1" value="&amp;lt;&amp;lt;extend&amp;gt;&amp;gt;" style="edgeLabel;html=1;align=center;verticalAlign=middle;resizable=0;points=[];fontFamily=Helvetica;fontSize=11;fontColor=default;labelBackgroundColor=#DAE8FC;rotation=0;" parent="eWomvBEqdYfxholk4F3O-2" vertex="1" connectable="0">
          <mxGeometry x="0.0754" relative="1" as="geometry">
            <mxPoint as="offset" />
          </mxGeometry>
        </mxCell>
        <mxCell id="eWomvBEqdYfxholk4F3O-1" value="Book print schedule" style="ellipse;whiteSpace=wrap;html=1;fontFamily=Helvetica;fontSize=11;fontColor=default;labelBackgroundColor=default;" parent="1" vertex="1">
          <mxGeometry x="500" y="290" width="120" height="80" as="geometry" />
        </mxCell>
        <mxCell id="fUHGixLvPy1YkrTG-87a-1" value="View all printed histories" style="ellipse;whiteSpace=wrap;html=1;" parent="1" vertex="1">
          <mxGeometry x="730" y="500" width="120" height="80" as="geometry" />
        </mxCell>
        <mxCell id="fUHGixLvPy1YkrTG-87a-2" style="shape=connector;rounded=0;orthogonalLoop=1;jettySize=auto;html=1;exitX=1;exitY=0.5;exitDx=0;exitDy=0;entryX=0.5;entryY=0.5;entryDx=0;entryDy=0;entryPerimeter=0;strokeColor=default;align=center;verticalAlign=middle;fontFamily=Helvetica;fontSize=11;fontColor=default;labelBackgroundColor=default;endArrow=none;endFill=0;" parent="1" source="fUHGixLvPy1YkrTG-87a-1" target="G-Txi9DhMvLnC2dPij01-38" edge="1">
          <mxGeometry relative="1" as="geometry" />
        </mxCell>
        <mxCell id="59uHLjds4xFwV_H9G_G9-2" style="rounded=0;orthogonalLoop=1;jettySize=auto;html=1;exitX=1;exitY=0.5;exitDx=0;exitDy=0;endArrow=none;endFill=0;entryX=0.5;entryY=0.5;entryDx=0;entryDy=0;entryPerimeter=0;" parent="1" source="59uHLjds4xFwV_H9G_G9-1" target="G-Txi9DhMvLnC2dPij01-38" edge="1">
          <mxGeometry relative="1" as="geometry">
            <mxPoint x="970" y="480" as="targetPoint" />
          </mxGeometry>
        </mxCell>
        <mxCell id="59uHLjds4xFwV_H9G_G9-1" value="Login/Logout" style="ellipse;whiteSpace=wrap;html=1;" parent="1" vertex="1">
          <mxGeometry x="730" y="390" width="120" height="80" as="geometry" />
        </mxCell>
      </root>
    </mxGraphModel>
  </diagram>
  <diagram name="MainFeature" id="qaLZa9zLmbJ4pmmT4AFv">
    <mxGraphModel grid="1" page="1" gridSize="10" guides="1" tooltips="1" connect="1" arrows="1" fold="1" pageScale="1" pageWidth="850" pageHeight="1100" math="0" shadow="0">
      <root>
        <mxCell id="0" />
        <mxCell id="1" parent="0" />
        <mxCell id="FrPeXLB1i2jRvC69o0uP-1" value="" style="rounded=1;whiteSpace=wrap;html=1;absoluteArcSize=1;arcSize=14;strokeWidth=2;fillColor=#dae8fc;strokeColor=#6c8ebf;labelBackgroundColor=#dae8fc;" vertex="1" parent="1">
          <mxGeometry x="190" y="270" width="570" height="520" as="geometry" />
        </mxCell>
        <mxCell id="FrPeXLB1i2jRvC69o0uP-2" value="&lt;b&gt;&lt;font style=&quot;font-size: 15px;&quot;&gt;Print document&lt;/font&gt;&lt;/b&gt;" style="text;html=1;align=center;verticalAlign=middle;resizable=0;points=[];autosize=1;strokeColor=none;fillColor=none;" vertex="1" parent="1">
          <mxGeometry x="405" y="290" width="130" height="30" as="geometry" />
        </mxCell>
        <mxCell id="FrPeXLB1i2jRvC69o0uP-6" style="edgeStyle=orthogonalEdgeStyle;shape=connector;rounded=0;orthogonalLoop=1;jettySize=auto;html=1;exitX=0.5;exitY=0.5;exitDx=0;exitDy=0;exitPerimeter=0;entryX=0;entryY=0.5;entryDx=0;entryDy=0;strokeColor=default;align=center;verticalAlign=middle;fontFamily=Helvetica;fontSize=11;fontColor=default;labelBackgroundColor=default;endArrow=none;endFill=0;" edge="1" parent="1" source="FrPeXLB1i2jRvC69o0uP-8" target="FrPeXLB1i2jRvC69o0uP-15">
          <mxGeometry relative="1" as="geometry">
            <Array as="points">
              <mxPoint x="210" y="470" />
              <mxPoint x="210" y="470" />
            </Array>
          </mxGeometry>
        </mxCell>
        <mxCell id="FrPeXLB1i2jRvC69o0uP-8" value="Student" style="shape=umlActor;verticalLabelPosition=bottom;verticalAlign=top;html=1;outlineConnect=0;" vertex="1" parent="1">
          <mxGeometry x="80" y="440" width="30" height="60" as="geometry" />
        </mxCell>
        <mxCell id="Nt7kSNCEvqsSMIk6_1l3-3" style="edgeStyle=orthogonalEdgeStyle;rounded=0;orthogonalLoop=1;jettySize=auto;html=1;exitX=1;exitY=0.5;exitDx=0;exitDy=0;entryX=0;entryY=0.5;entryDx=0;entryDy=0;endArrow=open;endFill=0;dashed=1;dashPattern=8 8;" edge="1" parent="1" source="FrPeXLB1i2jRvC69o0uP-15" target="zkhfeYdYU_jzLnz8FTxk-1">
          <mxGeometry relative="1" as="geometry" />
        </mxCell>
        <mxCell id="Nt7kSNCEvqsSMIk6_1l3-4" value="&amp;lt;&amp;lt;include&amp;gt;&amp;gt;" style="edgeLabel;html=1;align=center;verticalAlign=middle;resizable=0;points=[];labelBackgroundColor=#dae8fc;" connectable="0" vertex="1" parent="Nt7kSNCEvqsSMIk6_1l3-3">
          <mxGeometry x="-0.2076" y="1" relative="1" as="geometry">
            <mxPoint x="2" y="1" as="offset" />
          </mxGeometry>
        </mxCell>
        <mxCell id="_MMfejjHdxRQnRs-UT6a-2" style="edgeStyle=none;shape=connector;rounded=0;orthogonalLoop=1;jettySize=auto;html=1;exitX=0.5;exitY=1;exitDx=0;exitDy=0;entryX=0.5;entryY=0;entryDx=0;entryDy=0;strokeColor=default;align=center;verticalAlign=middle;fontFamily=Helvetica;fontSize=11;fontColor=default;labelBackgroundColor=default;endArrow=none;endFill=0;startArrow=open;startFill=0;dashed=1;dashPattern=8 8;" edge="1" parent="1" source="FrPeXLB1i2jRvC69o0uP-15" target="_MMfejjHdxRQnRs-UT6a-1">
          <mxGeometry relative="1" as="geometry" />
        </mxCell>
        <mxCell id="_MMfejjHdxRQnRs-UT6a-3" value="&amp;lt;&amp;lt;extend&amp;gt;&amp;gt;" style="edgeLabel;html=1;align=center;verticalAlign=middle;resizable=0;points=[];fontFamily=Helvetica;fontSize=11;fontColor=default;labelBackgroundColor=#DAE8FC;" connectable="0" vertex="1" parent="_MMfejjHdxRQnRs-UT6a-2">
          <mxGeometry x="-0.0626" y="-1" relative="1" as="geometry">
            <mxPoint as="offset" />
          </mxGeometry>
        </mxCell>
        <mxCell id="FrPeXLB1i2jRvC69o0uP-15" value="Print document" style="ellipse;whiteSpace=wrap;html=1;fontFamily=Helvetica;fontSize=11;fontColor=default;labelBackgroundColor=default;" vertex="1" parent="1">
          <mxGeometry x="200" y="430" width="120" height="80" as="geometry" />
        </mxCell>
        <mxCell id="zkhfeYdYU_jzLnz8FTxk-1" value="Choose printer" style="ellipse;whiteSpace=wrap;html=1;" vertex="1" parent="1">
          <mxGeometry x="410" y="430" width="120" height="80" as="geometry" />
        </mxCell>
        <mxCell id="zkhfeYdYU_jzLnz8FTxk-4" value="Upload file" style="ellipse;whiteSpace=wrap;html=1;" vertex="1" parent="1">
          <mxGeometry x="410" y="610" width="120" height="80" as="geometry" />
        </mxCell>
        <mxCell id="gj5-1AZG0pHQMGux_GiL-1" style="rounded=0;orthogonalLoop=1;jettySize=auto;html=1;exitX=0;exitY=0;exitDx=0;exitDy=0;entryX=1;entryY=1;entryDx=0;entryDy=0;endArrow=open;endFill=0;dashed=1;dashPattern=8 8;" edge="1" parent="1" source="zkhfeYdYU_jzLnz8FTxk-10" target="zkhfeYdYU_jzLnz8FTxk-1">
          <mxGeometry relative="1" as="geometry" />
        </mxCell>
        <mxCell id="gj5-1AZG0pHQMGux_GiL-2" value="&amp;lt;&amp;lt;extend&amp;gt;&amp;gt;" style="edgeLabel;html=1;align=center;verticalAlign=middle;resizable=0;points=[];labelBackgroundColor=none;rotation=50;" connectable="0" vertex="1" parent="gj5-1AZG0pHQMGux_GiL-1">
          <mxGeometry x="-0.1936" relative="1" as="geometry">
            <mxPoint x="8" y="-10" as="offset" />
          </mxGeometry>
        </mxCell>
        <mxCell id="zkhfeYdYU_jzLnz8FTxk-10" value="Set print options" style="ellipse;whiteSpace=wrap;html=1;" vertex="1" parent="1">
          <mxGeometry x="610" y="610" width="120" height="80" as="geometry" />
        </mxCell>
        <mxCell id="8o2l2obxBV1nIC5EwTG8-5" style="edgeStyle=orthogonalEdgeStyle;rounded=0;orthogonalLoop=1;jettySize=auto;html=1;entryX=0.5;entryY=1;entryDx=0;entryDy=0;endArrow=open;endFill=0;dashed=1;dashPattern=8 8;" edge="1" parent="1" source="zkhfeYdYU_jzLnz8FTxk-4" target="zkhfeYdYU_jzLnz8FTxk-1">
          <mxGeometry relative="1" as="geometry">
            <mxPoint x="330" y="480" as="sourcePoint" />
            <mxPoint x="420" y="480" as="targetPoint" />
          </mxGeometry>
        </mxCell>
        <mxCell id="8o2l2obxBV1nIC5EwTG8-6" value="&amp;lt;&amp;lt;include&amp;gt;&amp;gt;" style="edgeLabel;html=1;align=center;verticalAlign=middle;resizable=0;points=[];labelBackgroundColor=#dae8fc;" connectable="0" vertex="1" parent="8o2l2obxBV1nIC5EwTG8-5">
          <mxGeometry x="-0.2076" y="1" relative="1" as="geometry">
            <mxPoint x="-4" y="-20" as="offset" />
          </mxGeometry>
        </mxCell>
        <mxCell id="_MMfejjHdxRQnRs-UT6a-1" value="Book print schedule" style="ellipse;whiteSpace=wrap;html=1;fontFamily=Helvetica;fontSize=11;fontColor=default;labelBackgroundColor=default;" vertex="1" parent="1">
          <mxGeometry x="200" y="610" width="120" height="80" as="geometry" />
        </mxCell>
      </root>
    </mxGraphModel>
  </diagram>
  <diagram name="Sequence-diagram" id="4gV0UMDCDy54yE3EI36z">
    <mxGraphModel grid="1" page="1" gridSize="10" guides="1" tooltips="1" connect="1" arrows="1" fold="1" pageScale="1" pageWidth="850" pageHeight="1100" math="0" shadow="0">
      <root>
        <mxCell id="0" />
        <mxCell id="1" parent="0" />
        <mxCell id="XovfAXURGgLvClHRT81d-6" value="Store time slot" style="html=1;verticalAlign=bottom;endArrow=block;curved=0;rounded=0;fillColor=#0050ef;strokeColor=#001DBC;" edge="1" parent="1" target="rZY2wWbOVA-7awHBosTS-37">
          <mxGeometry width="80" relative="1" as="geometry">
            <mxPoint x="1370" y="790" as="sourcePoint" />
            <mxPoint x="1450" y="790" as="targetPoint" />
          </mxGeometry>
        </mxCell>
        <mxCell id="XovfAXURGgLvClHRT81d-5" value="Check available time slot&amp;nbsp;" style="html=1;verticalAlign=bottom;endArrow=block;curved=0;rounded=0;fillColor=#0050ef;strokeColor=#001DBC;" edge="1" parent="1">
          <mxGeometry width="80" relative="1" as="geometry">
            <mxPoint x="1151.5" y="750" as="sourcePoint" />
            <mxPoint x="1368.5" y="750" as="targetPoint" />
          </mxGeometry>
        </mxCell>
        <mxCell id="XovfAXURGgLvClHRT81d-2" value="List of schedules" style="html=1;verticalAlign=bottom;endArrow=open;dashed=1;endSize=8;curved=0;rounded=0;fillColor=#d5e8d4;gradientColor=#97d077;strokeColor=#82b366;" edge="1" parent="1" target="rZY2wWbOVA-7awHBosTS-32">
          <mxGeometry relative="1" as="geometry">
            <mxPoint x="1370" y="700" as="sourcePoint" />
            <mxPoint x="1290" y="700" as="targetPoint" />
          </mxGeometry>
        </mxCell>
        <mxCell id="XovfAXURGgLvClHRT81d-1" value="List of schedules" style="html=1;verticalAlign=bottom;endArrow=open;dashed=1;endSize=8;curved=0;rounded=0;fillColor=#d5e8d4;gradientColor=#97d077;strokeColor=#82b366;" edge="1" parent="1">
          <mxGeometry relative="1" as="geometry">
            <mxPoint x="1597.5" y="690" as="sourcePoint" />
            <mxPoint x="1377" y="690" as="targetPoint" />
          </mxGeometry>
        </mxCell>
        <mxCell id="_LoSdQVDyNqMb0_j5mBp-15" value="Success" style="html=1;verticalAlign=bottom;endArrow=open;dashed=1;endSize=8;curved=0;rounded=0;fillColor=#d5e8d4;strokeColor=#82b366;" edge="1" parent="1" target="_LoSdQVDyNqMb0_j5mBp-1">
          <mxGeometry x="0.0015" relative="1" as="geometry">
            <mxPoint x="1150.4999999999995" y="488.77" as="sourcePoint" />
            <mxPoint x="998" y="488.77" as="targetPoint" />
            <mxPoint as="offset" />
          </mxGeometry>
        </mxCell>
        <mxCell id="_LoSdQVDyNqMb0_j5mBp-14" value="Success" style="html=1;verticalAlign=bottom;endArrow=open;dashed=1;endSize=8;curved=0;rounded=0;fillColor=#d5e8d4;strokeColor=#82b366;" edge="1" parent="1" target="_LoSdQVDyNqMb0_j5mBp-3">
          <mxGeometry relative="1" as="geometry">
            <mxPoint x="1372" y="480" as="sourcePoint" />
            <mxPoint x="1160" y="480" as="targetPoint" />
            <Array as="points">
              <mxPoint x="1185" y="480" />
            </Array>
          </mxGeometry>
        </mxCell>
        <mxCell id="Uro_EXTD9jATqwT08XJp-12" value="Success" style="html=1;verticalAlign=bottom;endArrow=open;dashed=1;endSize=8;curved=0;rounded=0;fillColor=#d5e8d4;gradientColor=#97d077;strokeColor=#82b366;" edge="1" parent="1" target="_LoSdQVDyNqMb0_j5mBp-5">
          <mxGeometry relative="1" as="geometry">
            <mxPoint x="1600" y="470" as="sourcePoint" />
            <mxPoint x="1520" y="470" as="targetPoint" />
          </mxGeometry>
        </mxCell>
        <mxCell id="Uro_EXTD9jATqwT08XJp-11" value="Store new setting" style="html=1;verticalAlign=bottom;endArrow=block;curved=0;rounded=0;fillColor=#0050ef;strokeColor=#001DBC;" edge="1" parent="1" target="_LoSdQVDyNqMb0_j5mBp-7">
          <mxGeometry width="80" relative="1" as="geometry">
            <mxPoint x="1370" y="438.62" as="sourcePoint" />
            <mxPoint x="1450" y="438.62" as="targetPoint" />
          </mxGeometry>
        </mxCell>
        <mxCell id="Uro_EXTD9jATqwT08XJp-10" value="Change setting" style="html=1;verticalAlign=bottom;endArrow=block;curved=0;rounded=0;fillColor=#0050ef;strokeColor=#001DBC;" edge="1" parent="1" target="_LoSdQVDyNqMb0_j5mBp-5">
          <mxGeometry width="80" relative="1" as="geometry">
            <mxPoint x="1150" y="430" as="sourcePoint" />
            <mxPoint x="1230" y="430" as="targetPoint" />
          </mxGeometry>
        </mxCell>
        <mxCell id="Uro_EXTD9jATqwT08XJp-8" value="Display pop-up box" style="html=1;verticalAlign=bottom;endArrow=open;dashed=1;endSize=8;curved=0;rounded=0;fillColor=#d5e8d4;strokeColor=#82b366;gradientColor=#97d077;" edge="1" parent="1" target="_LoSdQVDyNqMb0_j5mBp-1">
          <mxGeometry relative="1" as="geometry">
            <mxPoint x="1150" y="390" as="sourcePoint" />
            <mxPoint x="1070" y="390" as="targetPoint" />
          </mxGeometry>
        </mxCell>
        <mxCell id="Uro_EXTD9jATqwT08XJp-7" value="Return data" style="html=1;verticalAlign=bottom;endArrow=open;dashed=1;endSize=8;curved=0;rounded=0;fillColor=#d5e8d4;gradientColor=#97d077;strokeColor=#82b366;" edge="1" parent="1" target="_LoSdQVDyNqMb0_j5mBp-3">
          <mxGeometry relative="1" as="geometry">
            <mxPoint x="1370" y="380" as="sourcePoint" />
            <mxPoint x="1290" y="380" as="targetPoint" />
          </mxGeometry>
        </mxCell>
        <mxCell id="Uro_EXTD9jATqwT08XJp-6" value="Return data" style="html=1;verticalAlign=bottom;endArrow=open;dashed=1;endSize=8;curved=0;rounded=0;fillColor=#d5e8d4;gradientColor=#97d077;strokeColor=#82b366;" edge="1" parent="1" target="_LoSdQVDyNqMb0_j5mBp-5">
          <mxGeometry relative="1" as="geometry">
            <mxPoint x="1600" y="370" as="sourcePoint" />
            <mxPoint x="1520" y="370" as="targetPoint" />
          </mxGeometry>
        </mxCell>
        <mxCell id="Uro_EXTD9jATqwT08XJp-5" value="Get default setting" style="html=1;verticalAlign=bottom;endArrow=block;curved=0;rounded=0;fillColor=#0050ef;strokeColor=#001DBC;" edge="1" parent="1" target="_LoSdQVDyNqMb0_j5mBp-7">
          <mxGeometry width="80" relative="1" as="geometry">
            <mxPoint x="1370" y="350" as="sourcePoint" />
            <mxPoint x="1450" y="350" as="targetPoint" />
          </mxGeometry>
        </mxCell>
        <mxCell id="Uro_EXTD9jATqwT08XJp-4" value="Check number of papers" style="html=1;align=left;spacingLeft=2;endArrow=block;rounded=0;edgeStyle=orthogonalEdgeStyle;curved=0;rounded=0;fillColor=#0050ef;strokeColor=#001DBC;" edge="1" parent="1">
          <mxGeometry relative="1" as="geometry">
            <mxPoint x="480" y="980" as="sourcePoint" />
            <Array as="points">
              <mxPoint x="510" y="1010" />
            </Array>
            <mxPoint x="485" y="1010" as="targetPoint" />
          </mxGeometry>
        </mxCell>
        <mxCell id="1cxZTopELDqAvmR1HsZd-4" value="List printers" style="html=1;verticalAlign=bottom;endArrow=open;dashed=1;endSize=8;curved=0;rounded=0;fillColor=#d5e8d4;gradientColor=#97d077;strokeColor=#82b366;" edge="1" parent="1">
          <mxGeometry relative="1" as="geometry">
            <mxPoint x="480" y="469.71" as="sourcePoint" />
            <mxPoint x="295" y="469.71" as="targetPoint" />
          </mxGeometry>
        </mxCell>
        <mxCell id="1cxZTopELDqAvmR1HsZd-3" value="List printers" style="html=1;verticalAlign=bottom;endArrow=open;dashed=1;endSize=8;curved=0;rounded=0;fillColor=#d5e8d4;strokeColor=#82b366;gradientColor=#97d077;" edge="1" parent="1" target="OpNr1Jw7lf6Uf8v_W_Qa-1">
          <mxGeometry relative="1" as="geometry">
            <mxPoint x="660" y="454.41" as="sourcePoint" />
            <mxPoint x="580" y="454.41" as="targetPoint" />
          </mxGeometry>
        </mxCell>
        <mxCell id="AkCMX1j7iMe5dOOx0aSW-14" value="alternative" style="shape=umlFrame;whiteSpace=wrap;html=1;pointerEvents=0;" vertex="1" parent="1">
          <mxGeometry x="50" y="370" width="660" height="180" as="geometry" />
        </mxCell>
        <mxCell id="AkCMX1j7iMe5dOOx0aSW-16" value="Matched" style="html=1;verticalAlign=bottom;endArrow=open;dashed=1;endSize=8;curved=0;rounded=0;fillColor=#d5e8d4;strokeColor=#82b366;" edge="1" parent="1">
          <mxGeometry relative="1" as="geometry">
            <mxPoint x="659.5" y="390" as="sourcePoint" />
            <mxPoint x="485" y="390" as="targetPoint" />
          </mxGeometry>
        </mxCell>
        <mxCell id="AkCMX1j7iMe5dOOx0aSW-15" value="" style="line;strokeWidth=1;fillColor=none;align=left;verticalAlign=middle;spacingTop=-1;spacingLeft=3;spacingRight=3;rotatable=0;labelPosition=right;points=[];portConstraint=eastwest;strokeColor=inherit;dashed=1;" vertex="1" parent="1">
          <mxGeometry x="50" y="485" width="660" height="8" as="geometry" />
        </mxCell>
        <mxCell id="AkCMX1j7iMe5dOOx0aSW-6" value="Model" style="shape=umlLifeline;perimeter=lifelinePerimeter;whiteSpace=wrap;html=1;container=1;dropTarget=0;collapsible=0;recursiveResize=0;outlineConnect=0;portConstraint=eastwest;newEdgeStyle={&quot;curved&quot;:0,&quot;rounded&quot;:0};fillColor=#dae8fc;strokeColor=#6c8ebf;" vertex="1" parent="1">
          <mxGeometry x="610" y="240" width="100" height="960" as="geometry" />
        </mxCell>
        <mxCell id="NOKEFig0Z4dAP_7LmzBm-4" value="" style="html=1;points=[[0,0,0,0,5],[0,1,0,0,-5],[1,0,0,0,5],[1,1,0,0,-5]];perimeter=orthogonalPerimeter;outlineConnect=0;targetShapes=umlLifeline;portConstraint=eastwest;newEdgeStyle={&quot;curved&quot;:0,&quot;rounded&quot;:0};fillColor=#dae8fc;strokeColor=#6c8ebf;" vertex="1" parent="AkCMX1j7iMe5dOOx0aSW-6">
          <mxGeometry x="45" y="100" width="10" height="180" as="geometry" />
        </mxCell>
        <mxCell id="1cxZTopELDqAvmR1HsZd-2" value="Request list printers" style="html=1;verticalAlign=bottom;endArrow=block;curved=0;rounded=0;fillColor=#0050ef;strokeColor=#001DBC;" edge="1" parent="1" target="NOKEFig0Z4dAP_7LmzBm-4">
          <mxGeometry width="80" relative="1" as="geometry">
            <mxPoint x="480" y="430" as="sourcePoint" />
            <mxPoint x="560" y="430" as="targetPoint" />
          </mxGeometry>
        </mxCell>
        <mxCell id="1cxZTopELDqAvmR1HsZd-1" value="Request list printers" style="html=1;verticalAlign=bottom;endArrow=block;curved=0;rounded=0;fillColor=#0050ef;strokeColor=#001DBC;" edge="1" parent="1" target="OpNr1Jw7lf6Uf8v_W_Qa-1">
          <mxGeometry width="80" relative="1" as="geometry">
            <mxPoint x="290" y="418.57" as="sourcePoint" />
            <mxPoint x="370" y="418.57" as="targetPoint" />
          </mxGeometry>
        </mxCell>
        <mxCell id="AkCMX1j7iMe5dOOx0aSW-19" value="Not matched" style="html=1;verticalAlign=bottom;endArrow=open;dashed=1;endSize=8;curved=0;rounded=0;fillColor=#f8cecc;strokeColor=#b85450;" edge="1" parent="1">
          <mxGeometry relative="1" as="geometry">
            <mxPoint x="654.75" y="510" as="sourcePoint" />
            <mxPoint x="485.25" y="510" as="targetPoint" />
          </mxGeometry>
        </mxCell>
        <mxCell id="AkCMX1j7iMe5dOOx0aSW-13" value="Find login token" style="html=1;verticalAlign=bottom;endArrow=block;curved=0;rounded=0;fillColor=#0050ef;strokeColor=#001DBC;" edge="1" parent="1" target="NOKEFig0Z4dAP_7LmzBm-4">
          <mxGeometry width="80" relative="1" as="geometry">
            <mxPoint x="480" y="350" as="sourcePoint" />
            <mxPoint x="650" y="350" as="targetPoint" />
          </mxGeometry>
        </mxCell>
        <mxCell id="AkCMX1j7iMe5dOOx0aSW-20" value="Not matched" style="html=1;verticalAlign=bottom;endArrow=open;dashed=1;endSize=8;curved=0;rounded=0;fillColor=#f8cecc;strokeColor=#b85450;" edge="1" parent="1">
          <mxGeometry relative="1" as="geometry">
            <mxPoint x="479.5" y="520" as="sourcePoint" />
            <mxPoint x="295" y="520" as="targetPoint" />
          </mxGeometry>
        </mxCell>
        <mxCell id="AkCMX1j7iMe5dOOx0aSW-17" value="User is authenticated" style="html=1;verticalAlign=bottom;endArrow=open;dashed=1;endSize=8;curved=0;rounded=0;fillColor=#d5e8d4;strokeColor=#82b366;" edge="1" parent="1" target="6HGoJKbHTqA6UWIQg8wU-4">
          <mxGeometry relative="1" as="geometry">
            <mxPoint x="479.4999999999999" y="398.9999999999999" as="sourcePoint" />
            <mxPoint x="300" y="399" as="targetPoint" />
          </mxGeometry>
        </mxCell>
        <mxCell id="AkCMX1j7iMe5dOOx0aSW-21" value="Redirect to login page" style="html=1;verticalAlign=bottom;endArrow=open;dashed=1;endSize=8;curved=0;rounded=0;fillColor=#f8cecc;strokeColor=#b85450;" edge="1" parent="1">
          <mxGeometry relative="1" as="geometry">
            <mxPoint x="289.5" y="528" as="sourcePoint" />
            <mxPoint x="130" y="528" as="targetPoint" />
          </mxGeometry>
        </mxCell>
        <mxCell id="AkCMX1j7iMe5dOOx0aSW-18" value="Display list printers" style="html=1;verticalAlign=bottom;endArrow=open;dashed=1;endSize=8;curved=0;rounded=0;fillColor=#d5e8d4;strokeColor=#82b366;" edge="1" parent="1">
          <mxGeometry relative="1" as="geometry">
            <mxPoint x="289.5" y="480" as="sourcePoint" />
            <mxPoint x="130" y="480" as="targetPoint" />
          </mxGeometry>
        </mxCell>
        <mxCell id="AkCMX1j7iMe5dOOx0aSW-12" value="Check authentication" style="html=1;verticalAlign=bottom;endArrow=block;curved=0;rounded=0;entryX=0.5;entryY=0.027;entryDx=0;entryDy=0;entryPerimeter=0;fillColor=#0050ef;strokeColor=#001DBC;" edge="1" parent="1">
          <mxGeometry width="80" relative="1" as="geometry">
            <mxPoint x="285" y="340" as="sourcePoint" />
            <mxPoint x="475" y="339.71000000000004" as="targetPoint" />
          </mxGeometry>
        </mxCell>
        <mxCell id="AkCMX1j7iMe5dOOx0aSW-5" value="Controller" style="shape=umlLifeline;perimeter=lifelinePerimeter;whiteSpace=wrap;html=1;container=1;dropTarget=0;collapsible=0;recursiveResize=0;outlineConnect=0;portConstraint=eastwest;newEdgeStyle={&quot;curved&quot;:0,&quot;rounded&quot;:0};fillColor=#dae8fc;strokeColor=#6c8ebf;" vertex="1" parent="1">
          <mxGeometry x="430" y="240" width="100" height="960" as="geometry" />
        </mxCell>
        <mxCell id="SxqGZdPb0bDR_3-5GzJt-2" value="Check printer is active" style="html=1;verticalAlign=bottom;endArrow=block;curved=0;rounded=0;fillColor=#0050ef;strokeColor=#001DBC;" edge="1" parent="AkCMX1j7iMe5dOOx0aSW-5">
          <mxGeometry width="80" relative="1" as="geometry">
            <mxPoint x="-140" y="351" as="sourcePoint" />
            <mxPoint x="45.00000000000023" y="351" as="targetPoint" />
          </mxGeometry>
        </mxCell>
        <mxCell id="SxqGZdPb0bDR_3-5GzJt-6" value="Show detail information" style="html=1;verticalAlign=bottom;endArrow=open;dashed=1;endSize=8;curved=0;rounded=0;fillColor=#d5e8d4;strokeColor=#82b366;" edge="1" parent="AkCMX1j7iMe5dOOx0aSW-5">
          <mxGeometry relative="1" as="geometry">
            <mxPoint x="-140.49999999999977" y="401" as="sourcePoint" />
            <mxPoint x="-300" y="401" as="targetPoint" />
          </mxGeometry>
        </mxCell>
        <mxCell id="SxqGZdPb0bDR_3-5GzJt-8" value="Disabled printer" style="html=1;verticalAlign=bottom;endArrow=open;dashed=1;endSize=8;curved=0;rounded=0;fillColor=#f8cecc;strokeColor=#b85450;" edge="1" parent="AkCMX1j7iMe5dOOx0aSW-5">
          <mxGeometry relative="1" as="geometry">
            <mxPoint x="-140.49999999999977" y="471" as="sourcePoint" />
            <mxPoint x="-300" y="471" as="targetPoint" />
          </mxGeometry>
        </mxCell>
        <mxCell id="SxqGZdPb0bDR_3-5GzJt-7" value="Printer is not active" style="html=1;verticalAlign=bottom;endArrow=open;dashed=1;endSize=8;curved=0;rounded=0;entryX=1.041;entryY=0.488;entryDx=0;entryDy=0;entryPerimeter=0;fillColor=#f8cecc;strokeColor=#b85450;" edge="1" parent="AkCMX1j7iMe5dOOx0aSW-5">
          <mxGeometry relative="1" as="geometry">
            <mxPoint x="49.5" y="460.99799999999993" as="sourcePoint" />
            <mxPoint x="-134.58999999999992" y="460.99799999999993" as="targetPoint" />
          </mxGeometry>
        </mxCell>
        <mxCell id="SxqGZdPb0bDR_3-5GzJt-4" value="Printer is active" style="html=1;verticalAlign=bottom;endArrow=open;dashed=1;endSize=8;curved=0;rounded=0;fillColor=#d5e8d4;strokeColor=#82b366;" edge="1" parent="AkCMX1j7iMe5dOOx0aSW-5">
          <mxGeometry relative="1" as="geometry">
            <mxPoint x="49.500000000000114" y="391" as="sourcePoint" />
            <mxPoint x="-135" y="391" as="targetPoint" />
          </mxGeometry>
        </mxCell>
        <mxCell id="NOKEFig0Z4dAP_7LmzBm-7" value="Out of paper" style="html=1;verticalAlign=bottom;endArrow=open;dashed=1;endSize=8;curved=0;rounded=0;fillColor=#f8cecc;strokeColor=#b85450;" edge="1" parent="AkCMX1j7iMe5dOOx0aSW-5">
          <mxGeometry relative="1" as="geometry">
            <mxPoint x="-140.5" y="900" as="sourcePoint" />
            <mxPoint x="-300" y="900" as="targetPoint" />
          </mxGeometry>
        </mxCell>
        <mxCell id="NOKEFig0Z4dAP_7LmzBm-6" value="Out of paper" style="html=1;verticalAlign=bottom;endArrow=open;dashed=1;endSize=8;curved=0;rounded=0;fillColor=#f8cecc;strokeColor=#b85450;" edge="1" parent="AkCMX1j7iMe5dOOx0aSW-5">
          <mxGeometry relative="1" as="geometry">
            <mxPoint x="50" y="890" as="sourcePoint" />
            <mxPoint x="-134.99999999999977" y="889.9999999999998" as="targetPoint" />
          </mxGeometry>
        </mxCell>
        <mxCell id="NOKEFig0Z4dAP_7LmzBm-2" value="" style="line;strokeWidth=1;align=left;verticalAlign=middle;spacingTop=-1;spacingLeft=3;spacingRight=3;rotatable=0;labelPosition=right;points=[];portConstraint=eastwest;dashed=1;" vertex="1" parent="AkCMX1j7iMe5dOOx0aSW-5">
          <mxGeometry x="-380" y="860" width="660" height="8" as="geometry" />
        </mxCell>
        <mxCell id="GNUkGgf9qzNnfR2uVltc-2" value="Store logs" style="html=1;verticalAlign=bottom;endArrow=block;curved=0;rounded=0;fillColor=#0050ef;strokeColor=#001DBC;" edge="1" parent="AkCMX1j7iMe5dOOx0aSW-5" target="NOKEFig0Z4dAP_7LmzBm-10">
          <mxGeometry width="80" relative="1" as="geometry">
            <mxPoint x="50" y="800" as="sourcePoint" />
            <mxPoint x="229.50000000000023" y="800" as="targetPoint" />
          </mxGeometry>
        </mxCell>
        <mxCell id="6HGoJKbHTqA6UWIQg8wU-2" value="Success" style="html=1;verticalAlign=bottom;endArrow=open;dashed=1;endSize=8;curved=0;rounded=0;fillColor=#d5e8d4;strokeColor=#82b366;" edge="1" parent="AkCMX1j7iMe5dOOx0aSW-5">
          <mxGeometry relative="1" as="geometry">
            <mxPoint x="49.5" y="830.0049999999997" as="sourcePoint" />
            <mxPoint x="-134.99999999999977" y="830.0049999999997" as="targetPoint" />
          </mxGeometry>
        </mxCell>
        <mxCell id="SxqGZdPb0bDR_3-5GzJt-17" value="File type is not valid" style="html=1;verticalAlign=bottom;endArrow=open;dashed=1;endSize=8;curved=0;rounded=0;fillColor=#f8cecc;strokeColor=#b85450;" edge="1" parent="AkCMX1j7iMe5dOOx0aSW-5">
          <mxGeometry relative="1" as="geometry">
            <mxPoint x="50" y="645.69" as="sourcePoint" />
            <mxPoint x="-134.99999999999977" y="645.69" as="targetPoint" />
          </mxGeometry>
        </mxCell>
        <mxCell id="SxqGZdPb0bDR_3-5GzJt-13" value="File type is valid" style="html=1;verticalAlign=bottom;endArrow=open;dashed=1;endSize=8;curved=0;rounded=0;fillColor=#d5e8d4;strokeColor=#82b366;" edge="1" parent="AkCMX1j7iMe5dOOx0aSW-5">
          <mxGeometry relative="1" as="geometry">
            <mxPoint x="50" y="582" as="sourcePoint" />
            <mxPoint x="-134.99999999999977" y="582" as="targetPoint" />
          </mxGeometry>
        </mxCell>
        <mxCell id="6HGoJKbHTqA6UWIQg8wU-3" value="Success" style="html=1;verticalAlign=bottom;endArrow=open;dashed=1;endSize=8;curved=0;rounded=0;fillColor=#d5e8d4;strokeColor=#82b366;" edge="1" parent="AkCMX1j7iMe5dOOx0aSW-5">
          <mxGeometry relative="1" as="geometry">
            <mxPoint x="-140.5" y="840" as="sourcePoint" />
            <mxPoint x="-300" y="840" as="targetPoint" />
          </mxGeometry>
        </mxCell>
        <mxCell id="GNUkGgf9qzNnfR2uVltc-1" value="Send file to print" style="html=1;verticalAlign=bottom;endArrow=block;curved=0;rounded=0;fillColor=#0050ef;strokeColor=#001DBC;" edge="1" parent="AkCMX1j7iMe5dOOx0aSW-5">
          <mxGeometry width="80" relative="1" as="geometry">
            <mxPoint x="-140" y="731" as="sourcePoint" />
            <mxPoint x="45.00000000000023" y="730.9999999999998" as="targetPoint" />
          </mxGeometry>
        </mxCell>
        <mxCell id="SxqGZdPb0bDR_3-5GzJt-18" value="File type is not valid" style="html=1;verticalAlign=bottom;endArrow=open;dashed=1;endSize=8;curved=0;rounded=0;fillColor=#f8cecc;strokeColor=#b85450;" edge="1" parent="AkCMX1j7iMe5dOOx0aSW-5">
          <mxGeometry relative="1" as="geometry">
            <mxPoint x="-140" y="655.69" as="sourcePoint" />
            <mxPoint x="-300" y="655.69" as="targetPoint" />
          </mxGeometry>
        </mxCell>
        <mxCell id="SxqGZdPb0bDR_3-5GzJt-16" value="File type is valid" style="html=1;verticalAlign=bottom;endArrow=open;dashed=1;endSize=8;curved=0;rounded=0;fillColor=#d5e8d4;strokeColor=#82b366;" edge="1" parent="AkCMX1j7iMe5dOOx0aSW-5">
          <mxGeometry relative="1" as="geometry">
            <mxPoint x="-140" y="590" as="sourcePoint" />
            <mxPoint x="-300" y="590" as="targetPoint" />
          </mxGeometry>
        </mxCell>
        <mxCell id="SxqGZdPb0bDR_3-5GzJt-14" value="" style="line;strokeWidth=1;align=left;verticalAlign=middle;spacingTop=-1;spacingLeft=3;spacingRight=3;rotatable=0;labelPosition=right;points=[];portConstraint=eastwest;dashed=1;" vertex="1" parent="AkCMX1j7iMe5dOOx0aSW-5">
          <mxGeometry x="-380" y="620" width="460" height="8" as="geometry" />
        </mxCell>
        <mxCell id="SxqGZdPb0bDR_3-5GzJt-10" value="Check file type" style="html=1;verticalAlign=bottom;endArrow=block;curved=0;rounded=0;fillColor=#0050ef;strokeColor=#001DBC;" edge="1" parent="AkCMX1j7iMe5dOOx0aSW-5">
          <mxGeometry width="80" relative="1" as="geometry">
            <mxPoint x="-144.75" y="541" as="sourcePoint" />
            <mxPoint x="44.75" y="541" as="targetPoint" />
          </mxGeometry>
        </mxCell>
        <mxCell id="SxqGZdPb0bDR_3-5GzJt-12" value="alternative" style="shape=umlFrame;whiteSpace=wrap;html=1;pointerEvents=0;" vertex="1" parent="AkCMX1j7iMe5dOOx0aSW-5">
          <mxGeometry x="-380" y="561" width="460" height="130" as="geometry" />
        </mxCell>
        <mxCell id="SxqGZdPb0bDR_3-5GzJt-3" value="alternative" style="shape=umlFrame;whiteSpace=wrap;html=1;pointerEvents=0;" vertex="1" parent="AkCMX1j7iMe5dOOx0aSW-5">
          <mxGeometry x="-380" y="371" width="460" height="130" as="geometry" />
        </mxCell>
        <mxCell id="SxqGZdPb0bDR_3-5GzJt-1" value="Choose printer" style="html=1;verticalAlign=bottom;endArrow=block;curved=0;rounded=0;fillColor=#0050ef;strokeColor=#001DBC;" edge="1" parent="AkCMX1j7iMe5dOOx0aSW-5">
          <mxGeometry width="80" relative="1" as="geometry">
            <mxPoint x="-300" y="341" as="sourcePoint" />
            <mxPoint x="-145" y="341" as="targetPoint" />
          </mxGeometry>
        </mxCell>
        <mxCell id="SxqGZdPb0bDR_3-5GzJt-9" value="Upload file" style="html=1;verticalAlign=bottom;endArrow=block;curved=0;rounded=0;fillColor=#0050ef;strokeColor=#001DBC;" edge="1" parent="AkCMX1j7iMe5dOOx0aSW-5">
          <mxGeometry width="80" relative="1" as="geometry">
            <mxPoint x="-300" y="531" as="sourcePoint" />
            <mxPoint x="-145" y="531.0000000000002" as="targetPoint" />
          </mxGeometry>
        </mxCell>
        <mxCell id="SxqGZdPb0bDR_3-5GzJt-19" value="[Active&lt;div&gt;printer]&lt;/div&gt;" style="text;html=1;align=left;verticalAlign=middle;resizable=0;points=[];autosize=1;strokeColor=none;fillColor=none;" vertex="1" parent="AkCMX1j7iMe5dOOx0aSW-5">
          <mxGeometry x="-370" y="400" width="60" height="40" as="geometry" />
        </mxCell>
        <mxCell id="SxqGZdPb0bDR_3-5GzJt-20" value="[Inactive&lt;div&gt;printer]&lt;/div&gt;" style="text;html=1;align=left;verticalAlign=middle;resizable=0;points=[];autosize=1;strokeColor=none;fillColor=none;" vertex="1" parent="AkCMX1j7iMe5dOOx0aSW-5">
          <mxGeometry x="-370" y="444" width="70" height="40" as="geometry" />
        </mxCell>
        <mxCell id="SxqGZdPb0bDR_3-5GzJt-21" value="[Valid file]" style="text;html=1;align=center;verticalAlign=middle;resizable=0;points=[];autosize=1;strokeColor=none;fillColor=none;" vertex="1" parent="AkCMX1j7iMe5dOOx0aSW-5">
          <mxGeometry x="-380" y="590" width="70" height="30" as="geometry" />
        </mxCell>
        <mxCell id="SxqGZdPb0bDR_3-5GzJt-22" value="[Invalid file]" style="text;html=1;align=center;verticalAlign=middle;resizable=0;points=[];autosize=1;strokeColor=none;fillColor=none;" vertex="1" parent="AkCMX1j7iMe5dOOx0aSW-5">
          <mxGeometry x="-385" y="641" width="80" height="30" as="geometry" />
        </mxCell>
        <mxCell id="SxqGZdPb0bDR_3-5GzJt-23" value="Send print request" style="html=1;verticalAlign=bottom;endArrow=block;curved=0;rounded=0;fillColor=#0050ef;strokeColor=#001DBC;" edge="1" parent="AkCMX1j7iMe5dOOx0aSW-5">
          <mxGeometry width="80" relative="1" as="geometry">
            <mxPoint x="-300" y="721" as="sourcePoint" />
            <mxPoint x="-145" y="720.9999999999998" as="targetPoint" />
          </mxGeometry>
        </mxCell>
        <mxCell id="NOKEFig0Z4dAP_7LmzBm-1" value="alternative" style="shape=umlFrame;whiteSpace=wrap;html=1;pointerEvents=0;" vertex="1" parent="AkCMX1j7iMe5dOOx0aSW-5">
          <mxGeometry x="-380" y="780" width="660" height="150" as="geometry" />
        </mxCell>
        <mxCell id="NOKEFig0Z4dAP_7LmzBm-5" value="Success" style="html=1;verticalAlign=bottom;endArrow=open;dashed=1;endSize=8;curved=0;rounded=0;fillColor=#d5e8d4;strokeColor=#82b366;" edge="1" parent="AkCMX1j7iMe5dOOx0aSW-5">
          <mxGeometry relative="1" as="geometry">
            <mxPoint x="229.5" y="819.9999999999999" as="sourcePoint" />
            <mxPoint x="55" y="819.9999999999999" as="targetPoint" />
          </mxGeometry>
        </mxCell>
        <mxCell id="NOKEFig0Z4dAP_7LmzBm-8" value="[Send to print&lt;div&gt;successfully]&lt;/div&gt;" style="text;html=1;align=left;verticalAlign=middle;resizable=0;points=[];autosize=1;strokeColor=none;fillColor=none;" vertex="1" parent="AkCMX1j7iMe5dOOx0aSW-5">
          <mxGeometry x="-375" y="810" width="90" height="40" as="geometry" />
        </mxCell>
        <mxCell id="NOKEFig0Z4dAP_7LmzBm-9" value="[Out of&lt;div&gt;paper]&lt;/div&gt;" style="text;html=1;align=left;verticalAlign=middle;resizable=0;points=[];autosize=1;strokeColor=none;fillColor=none;" vertex="1" parent="AkCMX1j7iMe5dOOx0aSW-5">
          <mxGeometry x="-375" y="873" width="60" height="40" as="geometry" />
        </mxCell>
        <mxCell id="NOKEFig0Z4dAP_7LmzBm-10" value="" style="html=1;points=[[0,0,0,0,5],[0,1,0,0,-5],[1,0,0,0,5],[1,1,0,0,-5]];perimeter=orthogonalPerimeter;outlineConnect=0;targetShapes=umlLifeline;portConstraint=eastwest;newEdgeStyle={&quot;curved&quot;:0,&quot;rounded&quot;:0};fillColor=#dae8fc;strokeColor=#6c8ebf;" vertex="1" parent="AkCMX1j7iMe5dOOx0aSW-5">
          <mxGeometry x="225" y="790" width="10" height="40" as="geometry" />
        </mxCell>
        <mxCell id="OpNr1Jw7lf6Uf8v_W_Qa-1" value="" style="html=1;points=[[0,0,0,0,5],[0,1,0,0,-5],[1,0,0,0,5],[1,1,0,0,-5]];perimeter=orthogonalPerimeter;outlineConnect=0;targetShapes=umlLifeline;portConstraint=eastwest;newEdgeStyle={&quot;curved&quot;:0,&quot;rounded&quot;:0};fillColor=#dae8fc;strokeColor=#6c8ebf;" vertex="1" parent="AkCMX1j7iMe5dOOx0aSW-5">
          <mxGeometry x="45" y="90" width="10" height="810" as="geometry" />
        </mxCell>
        <mxCell id="AkCMX1j7iMe5dOOx0aSW-7" value="" style="shape=umlLifeline;perimeter=lifelinePerimeter;whiteSpace=wrap;html=1;container=1;dropTarget=0;collapsible=0;recursiveResize=0;outlineConnect=0;portConstraint=eastwest;newEdgeStyle={&quot;curved&quot;:0,&quot;rounded&quot;:0};participant=umlActor;" vertex="1" parent="1">
          <mxGeometry x="120" y="240" width="20" height="960" as="geometry" />
        </mxCell>
        <mxCell id="AkCMX1j7iMe5dOOx0aSW-11" value="Click on print button" style="html=1;verticalAlign=bottom;endArrow=block;curved=0;rounded=0;fillColor=#0050ef;strokeColor=#001DBC;" edge="1" parent="1" target="6HGoJKbHTqA6UWIQg8wU-4">
          <mxGeometry width="80" relative="1" as="geometry">
            <mxPoint x="130.000909090909" y="330" as="sourcePoint" />
            <mxPoint x="280" y="330" as="targetPoint" />
          </mxGeometry>
        </mxCell>
        <mxCell id="AkCMX1j7iMe5dOOx0aSW-22" value="[User&lt;div&gt;logged in]&lt;/div&gt;" style="text;html=1;align=left;verticalAlign=middle;resizable=0;points=[];autosize=1;strokeColor=none;fillColor=none;" vertex="1" parent="1">
          <mxGeometry x="60" y="419" width="80" height="40" as="geometry" />
        </mxCell>
        <mxCell id="AkCMX1j7iMe5dOOx0aSW-23" value="[User doesn&#39;t&lt;div&gt;log in]&lt;/div&gt;" style="text;html=1;align=left;verticalAlign=middle;resizable=0;points=[];autosize=1;strokeColor=none;fillColor=none;" vertex="1" parent="1">
          <mxGeometry x="55" y="503" width="90" height="40" as="geometry" />
        </mxCell>
        <mxCell id="NOKEFig0Z4dAP_7LmzBm-11" value="Student" style="text;html=1;align=center;verticalAlign=middle;resizable=0;points=[];autosize=1;strokeColor=none;fillColor=none;labelBackgroundColor=default;" vertex="1" parent="1">
          <mxGeometry x="100" y="280" width="60" height="30" as="geometry" />
        </mxCell>
        <mxCell id="_LoSdQVDyNqMb0_j5mBp-1" value="" style="shape=umlLifeline;perimeter=lifelinePerimeter;whiteSpace=wrap;html=1;container=1;dropTarget=0;collapsible=0;recursiveResize=0;outlineConnect=0;portConstraint=eastwest;newEdgeStyle={&quot;curved&quot;:0,&quot;rounded&quot;:0};participant=umlActor;" vertex="1" parent="1">
          <mxGeometry x="978" y="242" width="20" height="278" as="geometry" />
        </mxCell>
        <mxCell id="_LoSdQVDyNqMb0_j5mBp-2" value="View" style="shape=umlLifeline;perimeter=lifelinePerimeter;whiteSpace=wrap;html=1;container=1;dropTarget=0;collapsible=0;recursiveResize=0;outlineConnect=0;portConstraint=eastwest;newEdgeStyle={&quot;curved&quot;:0,&quot;rounded&quot;:0};fillColor=#dae8fc;strokeColor=#6c8ebf;" vertex="1" parent="1">
          <mxGeometry x="1100" y="240" width="100" height="280" as="geometry" />
        </mxCell>
        <mxCell id="_LoSdQVDyNqMb0_j5mBp-3" value="" style="html=1;points=[[0,0,0,0,5],[0,1,0,0,-5],[1,0,0,0,5],[1,1,0,0,-5]];perimeter=orthogonalPerimeter;outlineConnect=0;targetShapes=umlLifeline;portConstraint=eastwest;newEdgeStyle={&quot;curved&quot;:0,&quot;rounded&quot;:0};fillColor=#dae8fc;strokeColor=#6c8ebf;" vertex="1" parent="_LoSdQVDyNqMb0_j5mBp-2">
          <mxGeometry x="45" y="79" width="10" height="181" as="geometry" />
        </mxCell>
        <mxCell id="_LoSdQVDyNqMb0_j5mBp-4" value="Controller" style="shape=umlLifeline;perimeter=lifelinePerimeter;whiteSpace=wrap;html=1;container=1;dropTarget=0;collapsible=0;recursiveResize=0;outlineConnect=0;portConstraint=eastwest;newEdgeStyle={&quot;curved&quot;:0,&quot;rounded&quot;:0};fillColor=#dae8fc;strokeColor=#6c8ebf;" vertex="1" parent="1">
          <mxGeometry x="1322" y="238" width="100" height="282" as="geometry" />
        </mxCell>
        <mxCell id="_LoSdQVDyNqMb0_j5mBp-5" value="" style="html=1;points=[[0,0,0,0,5],[0,1,0,0,-5],[1,0,0,0,5],[1,1,0,0,-5]];perimeter=orthogonalPerimeter;outlineConnect=0;targetShapes=umlLifeline;portConstraint=eastwest;newEdgeStyle={&quot;curved&quot;:0,&quot;rounded&quot;:0};fillColor=#dae8fc;strokeColor=#6c8ebf;" vertex="1" parent="_LoSdQVDyNqMb0_j5mBp-4">
          <mxGeometry x="45" y="90" width="10" height="160" as="geometry" />
        </mxCell>
        <mxCell id="_LoSdQVDyNqMb0_j5mBp-6" value="Model" style="shape=umlLifeline;perimeter=lifelinePerimeter;whiteSpace=wrap;html=1;container=1;dropTarget=0;collapsible=0;recursiveResize=0;outlineConnect=0;portConstraint=eastwest;newEdgeStyle={&quot;curved&quot;:0,&quot;rounded&quot;:0};fillColor=#dae8fc;strokeColor=#6c8ebf;" vertex="1" parent="1">
          <mxGeometry x="1548" y="240" width="100" height="280" as="geometry" />
        </mxCell>
        <mxCell id="_LoSdQVDyNqMb0_j5mBp-7" value="" style="html=1;points=[[0,0,0,0,5],[0,1,0,0,-5],[1,0,0,0,5],[1,1,0,0,-5]];perimeter=orthogonalPerimeter;outlineConnect=0;targetShapes=umlLifeline;portConstraint=eastwest;newEdgeStyle={&quot;curved&quot;:0,&quot;rounded&quot;:0};fillColor=#dae8fc;strokeColor=#6c8ebf;" vertex="1" parent="_LoSdQVDyNqMb0_j5mBp-6">
          <mxGeometry x="45" y="100" width="10" height="140" as="geometry" />
        </mxCell>
        <mxCell id="_LoSdQVDyNqMb0_j5mBp-8" value="Click on setting button" style="html=1;verticalAlign=bottom;endArrow=block;curved=0;rounded=0;fillColor=#0050ef;strokeColor=#001DBC;" edge="1" parent="1">
          <mxGeometry width="80" relative="1" as="geometry">
            <mxPoint x="988.2674418604649" y="330" as="sourcePoint" />
            <mxPoint x="1145" y="331" as="targetPoint" />
            <Array as="points">
              <mxPoint x="1070" y="330" />
            </Array>
          </mxGeometry>
        </mxCell>
        <mxCell id="_LoSdQVDyNqMb0_j5mBp-9" value="Request default setting" style="html=1;verticalAlign=bottom;endArrow=block;curved=0;rounded=0;fillColor=#0050ef;strokeColor=#001DBC;entryX=0;entryY=0;entryDx=0;entryDy=5;entryPerimeter=0;" edge="1" parent="1">
          <mxGeometry width="80" relative="1" as="geometry">
            <mxPoint x="1154.5000000000002" y="340" as="sourcePoint" />
            <mxPoint x="1366.5" y="340" as="targetPoint" />
          </mxGeometry>
        </mxCell>
        <mxCell id="AkCMX1j7iMe5dOOx0aSW-4" value="View" style="shape=umlLifeline;perimeter=lifelinePerimeter;whiteSpace=wrap;html=1;container=1;dropTarget=0;collapsible=0;recursiveResize=0;outlineConnect=0;portConstraint=eastwest;newEdgeStyle={&quot;curved&quot;:0,&quot;rounded&quot;:0};fillColor=#dae8fc;strokeColor=#6c8ebf;" vertex="1" parent="1">
          <mxGeometry x="240" y="240" width="100" height="960" as="geometry" />
        </mxCell>
        <mxCell id="6HGoJKbHTqA6UWIQg8wU-4" value="" style="html=1;points=[[0,0,0,0,5],[0,1,0,0,-5],[1,0,0,0,5],[1,1,0,0,-5]];perimeter=orthogonalPerimeter;outlineConnect=0;targetShapes=umlLifeline;portConstraint=eastwest;newEdgeStyle={&quot;curved&quot;:0,&quot;rounded&quot;:0};fillColor=#dae8fc;strokeColor=#6c8ebf;" vertex="1" parent="AkCMX1j7iMe5dOOx0aSW-4">
          <mxGeometry x="45" y="80" width="10" height="830" as="geometry" />
        </mxCell>
        <mxCell id="Uro_EXTD9jATqwT08XJp-9" value="Change setting" style="html=1;verticalAlign=bottom;endArrow=block;curved=0;rounded=0;fillColor=#0050ef;strokeColor=#001DBC;" edge="1" parent="1" target="_LoSdQVDyNqMb0_j5mBp-3">
          <mxGeometry width="80" relative="1" as="geometry">
            <mxPoint x="990" y="419" as="sourcePoint" />
            <mxPoint x="1070" y="419" as="targetPoint" />
          </mxGeometry>
        </mxCell>
        <mxCell id="rZY2wWbOVA-7awHBosTS-15" value="" style="line;strokeWidth=1;fillColor=none;align=left;verticalAlign=middle;spacingTop=-1;spacingLeft=3;spacingRight=3;rotatable=0;labelPosition=right;points=[];portConstraint=eastwest;strokeColor=inherit;dashed=1;" vertex="1" parent="1">
          <mxGeometry x="867.5" y="733" width="788" height="284" as="geometry" />
        </mxCell>
        <mxCell id="rZY2wWbOVA-7awHBosTS-16" value="alternative" style="shape=umlFrame;whiteSpace=wrap;html=1;pointerEvents=0;" vertex="1" parent="1">
          <mxGeometry x="864.5" y="769" width="791" height="181" as="geometry" />
        </mxCell>
        <mxCell id="rZY2wWbOVA-7awHBosTS-17" value="Book print schedule" style="html=1;verticalAlign=bottom;endArrow=block;curved=0;rounded=0;fillColor=#0050ef;strokeColor=#001DBC;" edge="1" parent="1">
          <mxGeometry width="80" relative="1" as="geometry">
            <mxPoint x="989" y="650" as="sourcePoint" />
            <mxPoint x="1145" y="650" as="targetPoint" />
          </mxGeometry>
        </mxCell>
        <mxCell id="rZY2wWbOVA-7awHBosTS-18" value="Request data" style="html=1;verticalAlign=bottom;endArrow=block;curved=0;rounded=0;fillColor=#0050ef;strokeColor=#001DBC;" edge="1" parent="1">
          <mxGeometry x="-0.0094" width="80" relative="1" as="geometry">
            <mxPoint x="1154" y="660" as="sourcePoint" />
            <mxPoint x="1366" y="660" as="targetPoint" />
            <Array as="points">
              <mxPoint x="1198.5" y="660" />
              <mxPoint x="1288.5" y="660" />
            </Array>
            <mxPoint as="offset" />
          </mxGeometry>
        </mxCell>
        <mxCell id="rZY2wWbOVA-7awHBosTS-19" value="Request data" style="html=1;verticalAlign=bottom;endArrow=block;curved=0;rounded=0;fillColor=#0050ef;strokeColor=#001DBC;endFill=1;" edge="1" parent="1">
          <mxGeometry x="0.0067" width="80" relative="1" as="geometry">
            <mxPoint x="1377" y="670" as="sourcePoint" />
            <mxPoint x="1593" y="670" as="targetPoint" />
            <mxPoint as="offset" />
          </mxGeometry>
        </mxCell>
        <mxCell id="rZY2wWbOVA-7awHBosTS-20" value="Success" style="html=1;verticalAlign=bottom;endArrow=open;dashed=1;endSize=8;curved=0;rounded=0;fillColor=#d5e8d4;strokeColor=#82b366;" edge="1" parent="1" source="rZY2wWbOVA-7awHBosTS-33">
          <mxGeometry x="1" y="-156" relative="1" as="geometry">
            <mxPoint x="1593" y="703" as="sourcePoint" />
            <mxPoint x="1377" y="703" as="targetPoint" />
            <mxPoint x="103" y="-39" as="offset" />
          </mxGeometry>
        </mxCell>
        <mxCell id="rZY2wWbOVA-7awHBosTS-21" value="Success" style="html=1;verticalAlign=bottom;endArrow=open;dashed=1;endSize=8;curved=0;rounded=0;fillColor=#d5e8d4;strokeColor=#82b366;" edge="1" parent="1">
          <mxGeometry relative="1" as="geometry">
            <mxPoint x="1366" y="830" as="sourcePoint" />
            <mxPoint x="1154" y="830" as="targetPoint" />
          </mxGeometry>
        </mxCell>
        <mxCell id="rZY2wWbOVA-7awHBosTS-22" value="Success" style="html=1;verticalAlign=bottom;endArrow=open;dashed=1;endSize=8;curved=0;rounded=0;fillColor=#d5e8d4;strokeColor=#82b366;" edge="1" parent="1">
          <mxGeometry x="0.0015" relative="1" as="geometry">
            <mxPoint x="1145" y="838.47" as="sourcePoint" />
            <mxPoint x="987.4473684210525" y="838.47" as="targetPoint" />
            <mxPoint as="offset" />
          </mxGeometry>
        </mxCell>
        <mxCell id="rZY2wWbOVA-7awHBosTS-23" value="&lt;div&gt;[Booking schedule&lt;/div&gt;&lt;div&gt;successful&lt;span style=&quot;background-color: initial;&quot;&gt;]&lt;/span&gt;&lt;/div&gt;" style="text;html=1;align=left;verticalAlign=middle;resizable=0;points=[];autosize=1;strokeColor=none;fillColor=none;" vertex="1" parent="1">
          <mxGeometry x="878" y="819.5" width="120" height="40" as="geometry" />
        </mxCell>
        <mxCell id="rZY2wWbOVA-7awHBosTS-24" value="Fail" style="html=1;verticalAlign=bottom;endArrow=open;dashed=1;endSize=8;curved=0;rounded=0;fillColor=#f8cecc;strokeColor=#b85450;" edge="1" parent="1">
          <mxGeometry relative="1" as="geometry">
            <mxPoint x="1364.5" y="910.47" as="sourcePoint" />
            <mxPoint x="1155.5" y="910.47" as="targetPoint" />
          </mxGeometry>
        </mxCell>
        <mxCell id="rZY2wWbOVA-7awHBosTS-25" value="Fail" style="html=1;verticalAlign=bottom;endArrow=open;dashed=1;endSize=8;curved=0;rounded=0;fillColor=#f8cecc;strokeColor=#b85450;" edge="1" parent="1">
          <mxGeometry relative="1" as="geometry">
            <mxPoint x="1146" y="923" as="sourcePoint" />
            <mxPoint x="987.5" y="923" as="targetPoint" />
          </mxGeometry>
        </mxCell>
        <mxCell id="rZY2wWbOVA-7awHBosTS-27" value="[Booking schedule&lt;div&gt;failed&lt;span style=&quot;background-color: initial;&quot;&gt;]&lt;/span&gt;&lt;/div&gt;" style="text;html=1;align=left;verticalAlign=middle;resizable=0;points=[];autosize=1;strokeColor=none;fillColor=none;" vertex="1" parent="1">
          <mxGeometry x="878" y="891" width="120" height="40" as="geometry" />
        </mxCell>
        <mxCell id="SxqGZdPb0bDR_3-5GzJt-5" value="" style="line;strokeWidth=1;align=left;verticalAlign=middle;spacingTop=-1;spacingLeft=3;spacingRight=3;rotatable=0;labelPosition=right;points=[];portConstraint=eastwest;dashed=1;" vertex="1" parent="1">
          <mxGeometry x="50" y="676" width="460" height="8" as="geometry" />
        </mxCell>
        <mxCell id="rZY2wWbOVA-7awHBosTS-30" value="" style="shape=umlLifeline;perimeter=lifelinePerimeter;whiteSpace=wrap;html=1;container=1;dropTarget=0;collapsible=0;recursiveResize=0;outlineConnect=0;portConstraint=eastwest;newEdgeStyle={&quot;curved&quot;:0,&quot;rounded&quot;:0};participant=umlActor;" vertex="1" parent="1">
          <mxGeometry x="978" y="560" width="20" height="400" as="geometry" />
        </mxCell>
        <mxCell id="rZY2wWbOVA-7awHBosTS-31" value="View" style="shape=umlLifeline;perimeter=lifelinePerimeter;whiteSpace=wrap;html=1;container=1;dropTarget=0;collapsible=0;recursiveResize=0;outlineConnect=0;portConstraint=eastwest;newEdgeStyle={&quot;curved&quot;:0,&quot;rounded&quot;:0};fillColor=#dae8fc;strokeColor=#6c8ebf;" vertex="1" parent="1">
          <mxGeometry x="1100" y="558" width="100" height="402" as="geometry" />
        </mxCell>
        <mxCell id="rZY2wWbOVA-7awHBosTS-32" value="" style="html=1;points=[[0,0,0,0,5],[0,1,0,0,-5],[1,0,0,0,5],[1,1,0,0,-5]];perimeter=orthogonalPerimeter;outlineConnect=0;targetShapes=umlLifeline;portConstraint=eastwest;newEdgeStyle={&quot;curved&quot;:0,&quot;rounded&quot;:0};fillColor=#dae8fc;strokeColor=#6c8ebf;" vertex="1" parent="rZY2wWbOVA-7awHBosTS-31">
          <mxGeometry x="45" y="79" width="10" height="301" as="geometry" />
        </mxCell>
        <mxCell id="rZY2wWbOVA-7awHBosTS-35" value="" style="html=1;verticalAlign=bottom;endArrow=open;dashed=1;endSize=8;curved=0;rounded=0;fillColor=#d5e8d4;strokeColor=#82b366;" edge="1" parent="1">
          <mxGeometry relative="1" as="geometry">
            <mxPoint x="1593" y="820" as="sourcePoint" />
            <mxPoint x="1377" y="820" as="targetPoint" />
          </mxGeometry>
        </mxCell>
        <mxCell id="rZY2wWbOVA-7awHBosTS-33" value="Controller" style="shape=umlLifeline;perimeter=lifelinePerimeter;whiteSpace=wrap;html=1;container=1;dropTarget=0;collapsible=0;recursiveResize=0;outlineConnect=0;portConstraint=eastwest;newEdgeStyle={&quot;curved&quot;:0,&quot;rounded&quot;:0};fillColor=#dae8fc;strokeColor=#6c8ebf;" vertex="1" parent="1">
          <mxGeometry x="1322" y="559" width="100" height="401" as="geometry" />
        </mxCell>
        <mxCell id="rZY2wWbOVA-7awHBosTS-34" value="" style="html=1;points=[[0,0,0,0,5],[0,1,0,0,-5],[1,0,0,0,5],[1,1,0,0,-5]];perimeter=orthogonalPerimeter;outlineConnect=0;targetShapes=umlLifeline;portConstraint=eastwest;newEdgeStyle={&quot;curved&quot;:0,&quot;rounded&quot;:0};fillColor=#dae8fc;strokeColor=#6c8ebf;" vertex="1" parent="rZY2wWbOVA-7awHBosTS-33">
          <mxGeometry x="45" y="90" width="10" height="270" as="geometry" />
        </mxCell>
        <mxCell id="rZY2wWbOVA-7awHBosTS-36" value="Model" style="shape=umlLifeline;perimeter=lifelinePerimeter;whiteSpace=wrap;html=1;container=1;dropTarget=0;collapsible=0;recursiveResize=0;outlineConnect=0;portConstraint=eastwest;newEdgeStyle={&quot;curved&quot;:0,&quot;rounded&quot;:0};fillColor=#dae8fc;strokeColor=#6c8ebf;" vertex="1" parent="1">
          <mxGeometry x="1548" y="559" width="100" height="401" as="geometry" />
        </mxCell>
        <mxCell id="rZY2wWbOVA-7awHBosTS-37" value="" style="html=1;points=[[0,0,0,0,5],[0,1,0,0,-5],[1,0,0,0,5],[1,1,0,0,-5]];perimeter=orthogonalPerimeter;outlineConnect=0;targetShapes=umlLifeline;portConstraint=eastwest;newEdgeStyle={&quot;curved&quot;:0,&quot;rounded&quot;:0};fillColor=#dae8fc;strokeColor=#6c8ebf;" vertex="1" parent="rZY2wWbOVA-7awHBosTS-36">
          <mxGeometry x="45" y="100" width="10" height="170" as="geometry" />
        </mxCell>
        <mxCell id="XovfAXURGgLvClHRT81d-3" value="Display list of schedules" style="html=1;verticalAlign=bottom;endArrow=open;dashed=1;endSize=8;curved=0;rounded=0;fillColor=#d5e8d4;gradientColor=#97d077;strokeColor=#82b366;" edge="1" parent="1">
          <mxGeometry relative="1" as="geometry">
            <mxPoint x="1145" y="710.0000000000001" as="sourcePoint" />
            <mxPoint x="988.2014925373135" y="710.0000000000001" as="targetPoint" />
          </mxGeometry>
        </mxCell>
        <mxCell id="XovfAXURGgLvClHRT81d-4" value="Select time slot" style="html=1;verticalAlign=bottom;endArrow=block;curved=0;rounded=0;fillColor=#0050ef;strokeColor=#001DBC;" edge="1" parent="1" target="rZY2wWbOVA-7awHBosTS-32">
          <mxGeometry width="80" relative="1" as="geometry">
            <mxPoint x="990" y="740" as="sourcePoint" />
            <mxPoint x="1070" y="740" as="targetPoint" />
          </mxGeometry>
        </mxCell>
        <mxCell id="XovfAXURGgLvClHRT81d-7" value="Student" style="text;html=1;align=center;verticalAlign=middle;resizable=0;points=[];autosize=1;strokeColor=none;fillColor=none;labelBackgroundColor=default;" vertex="1" parent="1">
          <mxGeometry x="958" y="600" width="60" height="30" as="geometry" />
        </mxCell>
        <mxCell id="XovfAXURGgLvClHRT81d-8" value="Student" style="text;html=1;align=center;verticalAlign=middle;resizable=0;points=[];autosize=1;strokeColor=none;fillColor=none;labelBackgroundColor=default;" vertex="1" parent="1">
          <mxGeometry x="958" y="280" width="60" height="30" as="geometry" />
        </mxCell>
      </root>
    </mxGraphModel>
  </diagram>
  <diagram name="LayerArch-NEW" id="ETR0M4Xju_2xptwwy-YY">
    <mxGraphModel grid="1" page="1" gridSize="10" guides="1" tooltips="1" connect="1" arrows="1" fold="1" pageScale="1" pageWidth="827" pageHeight="1169" math="0" shadow="0">
      <root>
        <mxCell id="0" />
        <mxCell id="1" parent="0" />
        <mxCell id="qXhdjxzzMp6BqnxOAe0F-1" value="&lt;b&gt;The Architecture of the SPSS system&lt;/b&gt;" style="text;html=1;align=center;verticalAlign=middle;whiteSpace=wrap;rounded=0;" vertex="1" parent="1">
          <mxGeometry x="240" y="60" width="290" height="30" as="geometry" />
        </mxCell>
        <mxCell id="qXhdjxzzMp6BqnxOAe0F-2" value="" style="html=1;whiteSpace=wrap;fillColor=#fff2cc;strokeColor=#d6b656;" vertex="1" parent="1">
          <mxGeometry x="80" y="130" width="530" height="50" as="geometry" />
        </mxCell>
        <mxCell id="qXhdjxzzMp6BqnxOAe0F-3" value="Browser-based user interface" style="text;html=1;align=center;verticalAlign=middle;whiteSpace=wrap;rounded=0;fontStyle=1;fillColor=default;strokeColor=#d6b656;" vertex="1" parent="1">
          <mxGeometry x="125" y="140" width="185" height="30" as="geometry" />
        </mxCell>
        <mxCell id="qXhdjxzzMp6BqnxOAe0F-4" value="SPSS app" style="text;html=1;align=center;verticalAlign=middle;whiteSpace=wrap;rounded=0;fontStyle=1;fillColor=default;strokeColor=#d6b656;" vertex="1" parent="1">
          <mxGeometry x="380" y="140" width="175" height="30" as="geometry" />
        </mxCell>
        <mxCell id="qXhdjxzzMp6BqnxOAe0F-5" value="" style="html=1;whiteSpace=wrap;strokeColor=#6c8ebf;fillColor=#dae8fc;" vertex="1" parent="1">
          <mxGeometry x="80" y="310" width="530" height="115" as="geometry" />
        </mxCell>
        <mxCell id="qXhdjxzzMp6BqnxOAe0F-8" value="Printer Manipulation" style="text;html=1;align=center;verticalAlign=middle;whiteSpace=wrap;rounded=0;fontStyle=1;fillColor=default;strokeColor=#6c8ebf;" vertex="1" parent="1">
          <mxGeometry x="125" y="370" width="185" height="30" as="geometry" />
        </mxCell>
        <mxCell id="qXhdjxzzMp6BqnxOAe0F-11" value="Printer management" style="text;html=1;align=center;verticalAlign=middle;whiteSpace=wrap;rounded=0;fontStyle=1;fillColor=default;strokeColor=#6c8ebf;" vertex="1" parent="1">
          <mxGeometry x="380" y="330" width="180" height="30" as="geometry" />
        </mxCell>
        <mxCell id="qXhdjxzzMp6BqnxOAe0F-12" value="User management" style="text;html=1;align=center;verticalAlign=middle;whiteSpace=wrap;rounded=0;fontStyle=1;fillColor=default;strokeColor=#6c8ebf;" vertex="1" parent="1">
          <mxGeometry x="380" y="370" width="180" height="30" as="geometry" />
        </mxCell>
        <mxCell id="LeXkKwwuOJz2VxwFfjoC-5" style="rounded=0;orthogonalLoop=1;jettySize=auto;html=1;exitX=0.75;exitY=1;exitDx=0;exitDy=0;entryX=0.5;entryY=0;entryDx=0;entryDy=0;startArrow=classic;startFill=1;endArrow=none;endFill=0;" edge="1" parent="1" source="qXhdjxzzMp6BqnxOAe0F-13" target="qXhdjxzzMp6BqnxOAe0F-30">
          <mxGeometry relative="1" as="geometry" />
        </mxCell>
        <mxCell id="qXhdjxzzMp6BqnxOAe0F-13" value="" style="html=1;whiteSpace=wrap;strokeColor=#9673a6;fillColor=#e1d5e7;strokeWidth=2;" vertex="1" parent="1">
          <mxGeometry x="80" y="570" width="530" height="60" as="geometry" />
        </mxCell>
        <mxCell id="qXhdjxzzMp6BqnxOAe0F-16" value="Data management" style="text;html=1;align=center;verticalAlign=middle;whiteSpace=wrap;rounded=0;fontStyle=1;fillColor=default;strokeColor=#9673a6;" vertex="1" parent="1">
          <mxGeometry x="380" y="585" width="180" height="30" as="geometry" />
        </mxCell>
        <mxCell id="qXhdjxzzMp6BqnxOAe0F-17" value="Data storage" style="text;html=1;align=center;verticalAlign=middle;whiteSpace=wrap;rounded=0;fontStyle=1;fillColor=default;strokeColor=#9673a6;" vertex="1" parent="1">
          <mxGeometry x="125" y="585" width="185" height="30" as="geometry" />
        </mxCell>
        <mxCell id="qXhdjxzzMp6BqnxOAe0F-22" value="" style="endArrow=classic;html=1;rounded=0;exitX=0.25;exitY=1;exitDx=0;exitDy=0;entryX=0.25;entryY=0;entryDx=0;entryDy=0;" edge="1" parent="1" source="qXhdjxzzMp6BqnxOAe0F-33" target="qXhdjxzzMp6BqnxOAe0F-5">
          <mxGeometry width="50" height="50" relative="1" as="geometry">
            <mxPoint x="830" y="240" as="sourcePoint" />
            <mxPoint x="690" y="450" as="targetPoint" />
          </mxGeometry>
        </mxCell>
        <mxCell id="qXhdjxzzMp6BqnxOAe0F-23" value="" style="endArrow=classic;html=1;rounded=0;entryX=0.25;entryY=0;entryDx=0;entryDy=0;exitX=0.471;exitY=0.867;exitDx=0;exitDy=0;exitPerimeter=0;" edge="1" parent="1" source="qXhdjxzzMp6BqnxOAe0F-28" target="qXhdjxzzMp6BqnxOAe0F-2">
          <mxGeometry width="50" height="50" relative="1" as="geometry">
            <mxPoint x="230" y="100" as="sourcePoint" />
            <mxPoint x="830" y="120" as="targetPoint" />
          </mxGeometry>
        </mxCell>
        <mxCell id="qXhdjxzzMp6BqnxOAe0F-24" value="" style="endArrow=classic;html=1;rounded=0;exitX=0.25;exitY=1;exitDx=0;exitDy=0;entryX=0.25;entryY=0;entryDx=0;entryDy=0;" edge="1" parent="1" source="zTEOReo_lqGl_2jVL1VK-1" target="qXhdjxzzMp6BqnxOAe0F-13">
          <mxGeometry width="50" height="50" relative="1" as="geometry">
            <mxPoint x="260.0000000000002" y="535" as="sourcePoint" />
            <mxPoint x="690" y="455" as="targetPoint" />
          </mxGeometry>
        </mxCell>
        <mxCell id="qXhdjxzzMp6BqnxOAe0F-26" value="" style="endArrow=classic;html=1;rounded=0;exitX=0.75;exitY=0;exitDx=0;exitDy=0;entryX=0.75;entryY=1;entryDx=0;entryDy=0;" edge="1" parent="1" source="qXhdjxzzMp6BqnxOAe0F-13" target="zTEOReo_lqGl_2jVL1VK-1">
          <mxGeometry width="50" height="50" relative="1" as="geometry">
            <mxPoint x="840" y="495" as="sourcePoint" />
            <mxPoint x="619.9999999999998" y="535" as="targetPoint" />
          </mxGeometry>
        </mxCell>
        <mxCell id="qXhdjxzzMp6BqnxOAe0F-27" value="" style="endArrow=classic;html=1;rounded=0;exitX=0.75;exitY=0;exitDx=0;exitDy=0;entryX=0.75;entryY=1;entryDx=0;entryDy=0;" edge="1" parent="1" source="qXhdjxzzMp6BqnxOAe0F-5" target="qXhdjxzzMp6BqnxOAe0F-33">
          <mxGeometry width="50" height="50" relative="1" as="geometry">
            <mxPoint x="1140" y="430" as="sourcePoint" />
            <mxPoint x="1130" y="240" as="targetPoint" />
          </mxGeometry>
        </mxCell>
        <mxCell id="qXhdjxzzMp6BqnxOAe0F-28" value="Request" style="text;html=1;align=center;verticalAlign=middle;whiteSpace=wrap;rounded=0;fontStyle=1" vertex="1" parent="1">
          <mxGeometry x="112.5" y="70" width="210" height="30" as="geometry" />
        </mxCell>
        <mxCell id="qXhdjxzzMp6BqnxOAe0F-30" value="Service" style="text;html=1;align=center;verticalAlign=middle;whiteSpace=wrap;rounded=0;fontStyle=1" vertex="1" parent="1">
          <mxGeometry x="390" y="670" width="175" height="30" as="geometry" />
        </mxCell>
        <mxCell id="qXhdjxzzMp6BqnxOAe0F-32" value="Authentication" style="text;html=1;align=center;verticalAlign=middle;whiteSpace=wrap;rounded=0;fontStyle=1;fillColor=default;strokeColor=#6c8ebf;" vertex="1" parent="1">
          <mxGeometry x="125" y="330" width="185" height="30" as="geometry" />
        </mxCell>
        <mxCell id="qXhdjxzzMp6BqnxOAe0F-33" value="" style="html=1;whiteSpace=wrap;fillColor=#ffe6cc;strokeColor=#d79b00;" vertex="1" parent="1">
          <mxGeometry x="80" y="220" width="530" height="50" as="geometry" />
        </mxCell>
        <mxCell id="qXhdjxzzMp6BqnxOAe0F-34" value="" style="endArrow=classic;html=1;rounded=0;exitX=0.25;exitY=1;exitDx=0;exitDy=0;entryX=0.25;entryY=0;entryDx=0;entryDy=0;" edge="1" parent="1" source="qXhdjxzzMp6BqnxOAe0F-2" target="qXhdjxzzMp6BqnxOAe0F-33">
          <mxGeometry width="50" height="50" relative="1" as="geometry">
            <mxPoint x="840" y="290" as="sourcePoint" />
            <mxPoint x="840" y="340" as="targetPoint" />
          </mxGeometry>
        </mxCell>
        <mxCell id="qXhdjxzzMp6BqnxOAe0F-35" value="" style="endArrow=classic;html=1;rounded=0;entryX=0.75;entryY=1;entryDx=0;entryDy=0;exitX=0.75;exitY=0;exitDx=0;exitDy=0;" edge="1" parent="1" source="qXhdjxzzMp6BqnxOAe0F-33" target="qXhdjxzzMp6BqnxOAe0F-2">
          <mxGeometry width="50" height="50" relative="1" as="geometry">
            <mxPoint x="1070" y="210" as="sourcePoint" />
            <mxPoint x="840" y="240" as="targetPoint" />
          </mxGeometry>
        </mxCell>
        <mxCell id="qXhdjxzzMp6BqnxOAe0F-36" value="REST API" style="text;html=1;align=center;verticalAlign=middle;whiteSpace=wrap;rounded=0;fontStyle=1;fillColor=default;strokeColor=#d79b00;" vertex="1" parent="1">
          <mxGeometry x="125" y="230" width="155" height="30" as="geometry" />
        </mxCell>
        <mxCell id="qXhdjxzzMp6BqnxOAe0F-37" value="API management" style="text;html=1;align=center;verticalAlign=middle;whiteSpace=wrap;rounded=0;fontStyle=1;fillColor=default;strokeColor=#CC6600;" vertex="1" parent="1">
          <mxGeometry x="380" y="230" width="180" height="30" as="geometry" />
        </mxCell>
        <mxCell id="qXhdjxzzMp6BqnxOAe0F-38" value="Presentation Layer" style="text;html=1;align=center;verticalAlign=middle;whiteSpace=wrap;rounded=0;fontStyle=1" vertex="1" parent="1">
          <mxGeometry x="30" y="100" width="210" height="30" as="geometry" />
        </mxCell>
        <mxCell id="qXhdjxzzMp6BqnxOAe0F-39" value="Database&amp;nbsp; layer" style="text;html=1;align=center;verticalAlign=middle;whiteSpace=wrap;rounded=0;fontStyle=1" vertex="1" parent="1">
          <mxGeometry x="20" y="540" width="210" height="30" as="geometry" />
        </mxCell>
        <mxCell id="qXhdjxzzMp6BqnxOAe0F-40" value="Router Layer" style="text;html=1;align=center;verticalAlign=middle;whiteSpace=wrap;rounded=0;fontStyle=1" vertex="1" parent="1">
          <mxGeometry x="10" y="190" width="210" height="30" as="geometry" />
        </mxCell>
        <mxCell id="qXhdjxzzMp6BqnxOAe0F-41" value="Business logic layer" style="text;html=1;align=center;verticalAlign=middle;whiteSpace=wrap;rounded=0;fontStyle=1" vertex="1" parent="1">
          <mxGeometry x="30" y="280" width="210" height="30" as="geometry" />
        </mxCell>
        <mxCell id="zTEOReo_lqGl_2jVL1VK-1" value="" style="html=1;whiteSpace=wrap;fillColor=#b0fbac;strokeColor=#a8ff75;strokeWidth=2;" vertex="1" parent="1">
          <mxGeometry x="80" y="470" width="530" height="60" as="geometry" />
        </mxCell>
        <mxCell id="zTEOReo_lqGl_2jVL1VK-2" value="Data retrieval" style="text;html=1;align=center;verticalAlign=middle;whiteSpace=wrap;rounded=0;fontStyle=1;fillColor=default;strokeColor=#a8ff75;" vertex="1" parent="1">
          <mxGeometry x="130" y="485" width="180" height="30" as="geometry" />
        </mxCell>
        <mxCell id="zTEOReo_lqGl_2jVL1VK-3" value="Data operation" style="text;html=1;align=center;verticalAlign=middle;whiteSpace=wrap;rounded=0;fontStyle=1;fillColor=default;strokeColor=#a8ff75;" vertex="1" parent="1">
          <mxGeometry x="380" y="485" width="180" height="30" as="geometry" />
        </mxCell>
        <mxCell id="zTEOReo_lqGl_2jVL1VK-5" value="" style="endArrow=classic;html=1;rounded=0;exitX=0.75;exitY=0;exitDx=0;exitDy=0;entryX=0.75;entryY=1;entryDx=0;entryDy=0;" edge="1" parent="1" source="zTEOReo_lqGl_2jVL1VK-1" target="qXhdjxzzMp6BqnxOAe0F-5">
          <mxGeometry width="50" height="50" relative="1" as="geometry">
            <mxPoint x="1140" y="540" as="sourcePoint" />
            <mxPoint x="620" y="450" as="targetPoint" />
          </mxGeometry>
        </mxCell>
        <mxCell id="zTEOReo_lqGl_2jVL1VK-6" value="" style="endArrow=classic;html=1;rounded=0;entryX=0.25;entryY=0;entryDx=0;entryDy=0;exitX=0.25;exitY=1;exitDx=0;exitDy=0;" edge="1" parent="1" source="qXhdjxzzMp6BqnxOAe0F-5" target="zTEOReo_lqGl_2jVL1VK-1">
          <mxGeometry width="50" height="50" relative="1" as="geometry">
            <mxPoint x="215" y="420" as="sourcePoint" />
            <mxPoint x="840" y="540" as="targetPoint" />
          </mxGeometry>
        </mxCell>
        <mxCell id="zTEOReo_lqGl_2jVL1VK-7" value="Persistence layer" style="text;html=1;align=center;verticalAlign=middle;whiteSpace=wrap;rounded=0;fontStyle=1" vertex="1" parent="1">
          <mxGeometry x="62.5" y="435" width="145" height="45" as="geometry" />
        </mxCell>
      </root>
    </mxGraphModel>
  </diagram>
  <diagram name="LayerArch-diagram" id="oOtSoi8BWGb0OozLDqI7">
    <mxGraphModel grid="1" page="1" gridSize="10" guides="1" tooltips="1" connect="1" arrows="1" fold="1" pageScale="1" pageWidth="1100" pageHeight="850" math="0" shadow="0">
      <root>
        <mxCell id="0" />
        <mxCell id="1" parent="0" />
        <mxCell id="dEVt7cotYm5Z_c7e-E5z-1" value="&lt;b&gt;The Architecture of the SPSS system&lt;/b&gt;" style="text;html=1;align=center;verticalAlign=middle;whiteSpace=wrap;rounded=0;" vertex="1" parent="1">
          <mxGeometry x="1625" y="60" width="290" height="30" as="geometry" />
        </mxCell>
        <mxCell id="dEVt7cotYm5Z_c7e-E5z-2" value="" style="html=1;whiteSpace=wrap;fillColor=#fff2cc;strokeColor=#d6b656;" vertex="1" parent="1">
          <mxGeometry x="1410" y="150" width="720" height="50" as="geometry" />
        </mxCell>
        <mxCell id="dEVt7cotYm5Z_c7e-E5z-3" value="Browser-based user interface" style="text;html=1;align=center;verticalAlign=middle;whiteSpace=wrap;rounded=0;fontStyle=1;fillColor=default;strokeColor=#d6b656;" vertex="1" parent="1">
          <mxGeometry x="1560" y="160" width="210" height="30" as="geometry" />
        </mxCell>
        <mxCell id="dEVt7cotYm5Z_c7e-E5z-4" value="SPSS app" style="text;html=1;align=center;verticalAlign=middle;whiteSpace=wrap;rounded=0;fontStyle=1;fillColor=default;strokeColor=#d6b656;" vertex="1" parent="1">
          <mxGeometry x="1810" y="160" width="175" height="30" as="geometry" />
        </mxCell>
        <mxCell id="dEVt7cotYm5Z_c7e-E5z-5" value="" style="html=1;whiteSpace=wrap;strokeColor=#6c8ebf;fillColor=#dae8fc;" vertex="1" parent="1">
          <mxGeometry x="1410" y="330" width="720" height="115" as="geometry" />
        </mxCell>
        <mxCell id="dEVt7cotYm5Z_c7e-E5z-6" value="View printed history" style="text;html=1;align=center;verticalAlign=middle;whiteSpace=wrap;rounded=0;fontStyle=1;fillColor=default;strokeColor=#6c8ebf;" vertex="1" parent="1">
          <mxGeometry x="1790" y="350" width="180" height="30" as="geometry" />
        </mxCell>
        <mxCell id="dEVt7cotYm5Z_c7e-E5z-7" value="Print" style="text;html=1;align=center;verticalAlign=middle;whiteSpace=wrap;rounded=0;fontStyle=1;fillColor=default;strokeColor=#6c8ebf;" vertex="1" parent="1">
          <mxGeometry x="1450" y="350" width="100" height="30" as="geometry" />
        </mxCell>
        <mxCell id="dEVt7cotYm5Z_c7e-E5z-8" value="Buy printing pages" style="text;html=1;align=center;verticalAlign=middle;whiteSpace=wrap;rounded=0;fontStyle=1;fillColor=default;strokeColor=#6c8ebf;" vertex="1" parent="1">
          <mxGeometry x="1590" y="395" width="170" height="30" as="geometry" />
        </mxCell>
        <mxCell id="dEVt7cotYm5Z_c7e-E5z-9" value="View list of printer" style="text;html=1;align=center;verticalAlign=middle;whiteSpace=wrap;rounded=0;fontStyle=1;fillColor=default;strokeColor=#6c8ebf;" vertex="1" parent="1">
          <mxGeometry x="1790" y="395" width="180" height="30" as="geometry" />
        </mxCell>
        <mxCell id="dEVt7cotYm5Z_c7e-E5z-10" value="View report" style="text;html=1;align=center;verticalAlign=middle;whiteSpace=wrap;rounded=0;fontStyle=1;fillColor=default;strokeColor=#6c8ebf;" vertex="1" parent="1">
          <mxGeometry x="1450" y="395" width="100" height="30" as="geometry" />
        </mxCell>
        <mxCell id="dEVt7cotYm5Z_c7e-E5z-11" value="Manage printer" style="text;html=1;align=center;verticalAlign=middle;whiteSpace=wrap;rounded=0;fontStyle=1;fillColor=default;strokeColor=#6c8ebf;" vertex="1" parent="1">
          <mxGeometry x="1980" y="395" width="130" height="30" as="geometry" />
        </mxCell>
        <mxCell id="dEVt7cotYm5Z_c7e-E5z-12" value="Manage user" style="text;html=1;align=center;verticalAlign=middle;whiteSpace=wrap;rounded=0;fontStyle=1;fillColor=default;strokeColor=#6c8ebf;" vertex="1" parent="1">
          <mxGeometry x="1980" y="350" width="130" height="30" as="geometry" />
        </mxCell>
        <mxCell id="dEVt7cotYm5Z_c7e-E5z-13" value="" style="html=1;whiteSpace=wrap;strokeColor=#9673a6;fillColor=#e1d5e7;strokeWidth=2;" vertex="1" parent="1">
          <mxGeometry x="1410" y="595" width="720" height="60" as="geometry" />
        </mxCell>
        <mxCell id="dEVt7cotYm5Z_c7e-E5z-14" value="User storage" style="text;html=1;align=center;verticalAlign=middle;whiteSpace=wrap;rounded=0;fontStyle=1;fillColor=default;strokeColor=#9673a6;" vertex="1" parent="1">
          <mxGeometry x="1980" y="610" width="110" height="30" as="geometry" />
        </mxCell>
        <mxCell id="dEVt7cotYm5Z_c7e-E5z-15" value="Application storage" style="text;html=1;align=center;verticalAlign=middle;whiteSpace=wrap;rounded=0;fontStyle=1;fillColor=default;strokeColor=#9673a6;" vertex="1" parent="1">
          <mxGeometry x="1570" y="610" width="160" height="30" as="geometry" />
        </mxCell>
        <mxCell id="dEVt7cotYm5Z_c7e-E5z-16" value="Logging and monitoring" style="text;html=1;align=center;verticalAlign=middle;whiteSpace=wrap;rounded=0;fontStyle=1;fillColor=default;strokeColor=#9673a6;" vertex="1" parent="1">
          <mxGeometry x="1777.5" y="610" width="160" height="30" as="geometry" />
        </mxCell>
        <mxCell id="dEVt7cotYm5Z_c7e-E5z-17" value="Data storage" style="text;html=1;align=center;verticalAlign=middle;whiteSpace=wrap;rounded=0;fontStyle=1;fillColor=default;strokeColor=#9673a6;" vertex="1" parent="1">
          <mxGeometry x="1430" y="610" width="100" height="30" as="geometry" />
        </mxCell>
        <mxCell id="dEVt7cotYm5Z_c7e-E5z-18" value="" style="html=1;whiteSpace=wrap;fillColor=#b0fbac;strokeColor=#a8ff75;strokeWidth=2;" vertex="1" parent="1">
          <mxGeometry x="1410" y="495" width="720" height="60" as="geometry" />
        </mxCell>
        <mxCell id="dEVt7cotYm5Z_c7e-E5z-19" value="Printer management" style="text;html=1;align=center;verticalAlign=middle;whiteSpace=wrap;rounded=0;fontStyle=1;fillColor=default;strokeColor=#a8ff75;" vertex="1" parent="1">
          <mxGeometry x="1470" y="510" width="130" height="30" as="geometry" />
        </mxCell>
        <mxCell id="dEVt7cotYm5Z_c7e-E5z-20" value="Application management" style="text;html=1;align=center;verticalAlign=middle;whiteSpace=wrap;rounded=0;fontStyle=1;fillColor=default;strokeColor=#a8ff75;" vertex="1" parent="1">
          <mxGeometry x="1680" y="510" width="160" height="30" as="geometry" />
        </mxCell>
        <mxCell id="dEVt7cotYm5Z_c7e-E5z-21" value="Student management" style="text;html=1;align=center;verticalAlign=middle;whiteSpace=wrap;rounded=0;fontStyle=1;fillColor=default;strokeColor=#a8ff75;" vertex="1" parent="1">
          <mxGeometry x="1920" y="510" width="160" height="30" as="geometry" />
        </mxCell>
        <mxCell id="dEVt7cotYm5Z_c7e-E5z-22" value="" style="endArrow=classic;html=1;rounded=0;exitX=0.25;exitY=1;exitDx=0;exitDy=0;entryX=0.25;entryY=0;entryDx=0;entryDy=0;" edge="1" parent="1" source="dEVt7cotYm5Z_c7e-E5z-34" target="dEVt7cotYm5Z_c7e-E5z-5">
          <mxGeometry width="50" height="50" relative="1" as="geometry">
            <mxPoint x="2160" y="260" as="sourcePoint" />
            <mxPoint x="2020" y="470" as="targetPoint" />
          </mxGeometry>
        </mxCell>
        <mxCell id="dEVt7cotYm5Z_c7e-E5z-24" value="" style="endArrow=classic;html=1;rounded=0;entryX=0.25;entryY=0;entryDx=0;entryDy=0;exitX=0.471;exitY=0.867;exitDx=0;exitDy=0;exitPerimeter=0;" edge="1" parent="1" source="dEVt7cotYm5Z_c7e-E5z-29" target="dEVt7cotYm5Z_c7e-E5z-2">
          <mxGeometry width="50" height="50" relative="1" as="geometry">
            <mxPoint x="1560" y="120" as="sourcePoint" />
            <mxPoint x="2160" y="140" as="targetPoint" />
          </mxGeometry>
        </mxCell>
        <mxCell id="dEVt7cotYm5Z_c7e-E5z-25" value="" style="endArrow=classic;html=1;rounded=0;exitX=0.25;exitY=1;exitDx=0;exitDy=0;entryX=0.25;entryY=0;entryDx=0;entryDy=0;" edge="1" parent="1" source="dEVt7cotYm5Z_c7e-E5z-18" target="dEVt7cotYm5Z_c7e-E5z-13">
          <mxGeometry width="50" height="50" relative="1" as="geometry">
            <mxPoint x="1970" y="525" as="sourcePoint" />
            <mxPoint x="2020" y="475" as="targetPoint" />
          </mxGeometry>
        </mxCell>
        <mxCell id="dEVt7cotYm5Z_c7e-E5z-26" value="" style="endArrow=classic;html=1;rounded=0;exitX=0.75;exitY=0;exitDx=0;exitDy=0;entryX=0.75;entryY=1;entryDx=0;entryDy=0;" edge="1" parent="1" source="dEVt7cotYm5Z_c7e-E5z-18" target="dEVt7cotYm5Z_c7e-E5z-5">
          <mxGeometry width="50" height="50" relative="1" as="geometry">
            <mxPoint x="2470" y="565" as="sourcePoint" />
            <mxPoint x="2460" y="415" as="targetPoint" />
          </mxGeometry>
        </mxCell>
        <mxCell id="dEVt7cotYm5Z_c7e-E5z-27" value="" style="endArrow=classic;html=1;rounded=0;exitX=0.75;exitY=0;exitDx=0;exitDy=0;entryX=0.75;entryY=1;entryDx=0;entryDy=0;" edge="1" parent="1" source="dEVt7cotYm5Z_c7e-E5z-13" target="dEVt7cotYm5Z_c7e-E5z-18">
          <mxGeometry width="50" height="50" relative="1" as="geometry">
            <mxPoint x="2170" y="515" as="sourcePoint" />
            <mxPoint x="2170" y="565" as="targetPoint" />
          </mxGeometry>
        </mxCell>
        <mxCell id="dEVt7cotYm5Z_c7e-E5z-28" value="" style="endArrow=classic;html=1;rounded=0;exitX=0.75;exitY=0;exitDx=0;exitDy=0;entryX=0.75;entryY=1;entryDx=0;entryDy=0;" edge="1" parent="1" source="dEVt7cotYm5Z_c7e-E5z-5" target="dEVt7cotYm5Z_c7e-E5z-34">
          <mxGeometry width="50" height="50" relative="1" as="geometry">
            <mxPoint x="2470" y="450" as="sourcePoint" />
            <mxPoint x="2460" y="260" as="targetPoint" />
          </mxGeometry>
        </mxCell>
        <mxCell id="dEVt7cotYm5Z_c7e-E5z-29" value="Request" style="text;html=1;align=center;verticalAlign=middle;whiteSpace=wrap;rounded=0;fontStyle=1" vertex="1" parent="1">
          <mxGeometry x="1490" y="90" width="210" height="30" as="geometry" />
        </mxCell>
        <mxCell id="dEVt7cotYm5Z_c7e-E5z-30" value="" style="endArrow=classic;html=1;rounded=0;exitX=0.25;exitY=1;exitDx=0;exitDy=0;entryX=0.25;entryY=0;entryDx=0;entryDy=0;" edge="1" parent="1" source="dEVt7cotYm5Z_c7e-E5z-5" target="dEVt7cotYm5Z_c7e-E5z-18">
          <mxGeometry width="50" height="50" relative="1" as="geometry">
            <mxPoint x="2160" y="415" as="sourcePoint" />
            <mxPoint x="2170" y="565" as="targetPoint" />
          </mxGeometry>
        </mxCell>
        <mxCell id="dEVt7cotYm5Z_c7e-E5z-31" value="Service" style="text;html=1;align=center;verticalAlign=middle;whiteSpace=wrap;rounded=0;fontStyle=1" vertex="1" parent="1">
          <mxGeometry x="1845" y="690" width="210" height="30" as="geometry" />
        </mxCell>
        <mxCell id="dEVt7cotYm5Z_c7e-E5z-32" value="" style="endArrow=classic;html=1;rounded=0;entryX=0.75;entryY=1;entryDx=0;entryDy=0;exitX=0.5;exitY=0;exitDx=0;exitDy=0;" edge="1" parent="1" source="dEVt7cotYm5Z_c7e-E5z-31" target="dEVt7cotYm5Z_c7e-E5z-13">
          <mxGeometry width="50" height="50" relative="1" as="geometry">
            <mxPoint x="2460" y="645" as="sourcePoint" />
            <mxPoint x="2460" y="645" as="targetPoint" />
          </mxGeometry>
        </mxCell>
        <mxCell id="dEVt7cotYm5Z_c7e-E5z-33" value="Authentication" style="text;html=1;align=center;verticalAlign=middle;whiteSpace=wrap;rounded=0;fontStyle=1;fillColor=default;strokeColor=#6c8ebf;" vertex="1" parent="1">
          <mxGeometry x="1590" y="350" width="170" height="30" as="geometry" />
        </mxCell>
        <mxCell id="dEVt7cotYm5Z_c7e-E5z-34" value="" style="html=1;whiteSpace=wrap;fillColor=#ffe6cc;strokeColor=#d79b00;" vertex="1" parent="1">
          <mxGeometry x="1410" y="240" width="720" height="50" as="geometry" />
        </mxCell>
        <mxCell id="dEVt7cotYm5Z_c7e-E5z-35" value="" style="endArrow=classic;html=1;rounded=0;exitX=0.25;exitY=1;exitDx=0;exitDy=0;entryX=0.25;entryY=0;entryDx=0;entryDy=0;" edge="1" parent="1" source="dEVt7cotYm5Z_c7e-E5z-2" target="dEVt7cotYm5Z_c7e-E5z-34">
          <mxGeometry width="50" height="50" relative="1" as="geometry">
            <mxPoint x="2170" y="310" as="sourcePoint" />
            <mxPoint x="2170" y="360" as="targetPoint" />
          </mxGeometry>
        </mxCell>
        <mxCell id="dEVt7cotYm5Z_c7e-E5z-36" value="" style="endArrow=classic;html=1;rounded=0;entryX=0.75;entryY=1;entryDx=0;entryDy=0;exitX=0.75;exitY=0;exitDx=0;exitDy=0;" edge="1" parent="1" source="dEVt7cotYm5Z_c7e-E5z-34" target="dEVt7cotYm5Z_c7e-E5z-2">
          <mxGeometry width="50" height="50" relative="1" as="geometry">
            <mxPoint x="2400" y="230" as="sourcePoint" />
            <mxPoint x="2170" y="260" as="targetPoint" />
          </mxGeometry>
        </mxCell>
        <mxCell id="dEVt7cotYm5Z_c7e-E5z-37" value="REST API" style="text;html=1;align=center;verticalAlign=middle;whiteSpace=wrap;rounded=0;fontStyle=1;fillColor=default;strokeColor=#d79b00;" vertex="1" parent="1">
          <mxGeometry x="1580" y="250" width="140" height="30" as="geometry" />
        </mxCell>
        <mxCell id="dEVt7cotYm5Z_c7e-E5z-38" value="API management" style="text;html=1;align=center;verticalAlign=middle;whiteSpace=wrap;rounded=0;fontStyle=1;fillColor=default;strokeColor=#CC6600;" vertex="1" parent="1">
          <mxGeometry x="1820" y="250" width="120" height="30" as="geometry" />
        </mxCell>
        <mxCell id="FhscmpmgloXteJWle91k-1" value="Presentation Layer" style="text;html=1;align=center;verticalAlign=middle;whiteSpace=wrap;rounded=0;fontStyle=1" vertex="1" parent="1">
          <mxGeometry x="1360" y="120" width="210" height="30" as="geometry" />
        </mxCell>
        <mxCell id="boO4aOGMycadjx9K3RMf-1" value="Database&amp;nbsp; layer" style="text;html=1;align=center;verticalAlign=middle;whiteSpace=wrap;rounded=0;fontStyle=1" vertex="1" parent="1">
          <mxGeometry x="1360" y="565" width="210" height="30" as="geometry" />
        </mxCell>
        <mxCell id="6lb4gzL4OuDVV_ETP39H-1" value="Router Layer" style="text;html=1;align=center;verticalAlign=middle;whiteSpace=wrap;rounded=0;fontStyle=1" vertex="1" parent="1">
          <mxGeometry x="1340" y="210" width="210" height="30" as="geometry" />
        </mxCell>
        <mxCell id="fm_dmyiHrRMiS0eKqu09-1" value="Business logic layer" style="text;html=1;align=center;verticalAlign=middle;whiteSpace=wrap;rounded=0;fontStyle=1" vertex="1" parent="1">
          <mxGeometry x="1350" y="300" width="210" height="30" as="geometry" />
        </mxCell>
        <mxCell id="J61uzZ1nMbbrWVoyomjC-1" value="Persistence layer" style="text;html=1;align=center;verticalAlign=middle;whiteSpace=wrap;rounded=0;fontStyle=1" vertex="1" parent="1">
          <mxGeometry x="1360" y="465" width="210" height="30" as="geometry" />
        </mxCell>
      </root>
    </mxGraphModel>
  </diagram>
</mxfile>
